<?xml version="1.0" encoding="UTF-8"?>
<svg width="2515.2" height="535.86" version="1.1" viewBox="0 0 2515.2 535.86" xmlns="http://www.w3.org/2000/svg" xmlns:cc="http://creativecommons.org/ns#" xmlns:dc="http://purl.org/dc/elements/1.1/" xmlns:rdf="http://www.w3.org/1999/02/22-rdf-syntax-ns#">
 <metadata>
  <rdf:RDF>
   <cc:Work rdf:about="">
    <dc:format>image/svg+xml</dc:format>
    <dc:type rdf:resource="http://purl.org/dc/dcmitype/StillImage"/>
    <dc:title/>
   </cc:Work>
  </rdf:RDF>
 </metadata>
 <defs>
  <clipPath id="clipPath5432-4">
   <path d="m0 792h612v-792h-612z"/>
  </clipPath>
 </defs>
 <g transform="translate(352.35 570.66)">
  <g transform="matrix(1.3333 0 0 -1.3333 -509.05 513.86)">
   <g transform="translate(11.365 216.55)">
    <g clip-path="url(#clipPath5432-4)">
     <g transform="translate(486.5,484.75)">
      <path d="m0 0c0.11 0.045 24.75-48.75 20.378-100.62-2.378-87.13-79.378-185.96-194.13-189.17l-16 0.333c-118.25 5.877-190.92 106.21-190.58 196.88 0.291 16.855 0.224 35.697 7.333 59.001l7.25-2.167c30.305-11.454 63-100 169.29-105.04 4.615-0.219 13.478-0.423 13.458-0.46-6.88-6.864-46-23-63.75-27.25 4.642 1.111-0.363 0.114 0 0 42.75-26.5 85.5 24.5 141 32l17 1c-3.25 10.25-17.882 9.385-19.25 9.25-38.399-3.78-28.807 0.624-30 0.25 59 18.5 93 65.75 135.46 123.21l2.54 2.79z" fill="#007ec5"/>
     </g>
     <g transform="translate(307.3,596.86)">
      <path d="m0 0c-0.498 8e-3 -0.738 0.011 0 0" fill="#263f78"/>
     </g>
     <g transform="translate(308.83,596.83)">
      <path d="m0 0s-0.485 7e-3 -0.979 0.015c0.268-4e-3 0.577-9e-3 0.979-0.015" fill="#263f78"/>
     </g>
     <g transform="translate(307.85,596.85)">
      <path d="m0 0c-0.224 3e-3 -0.409 6e-3 -0.553 9e-3 0.168-3e-3 0.359-6e-3 0.553-9e-3" fill="#263f78"/>
     </g>
     <g transform="translate(371.89,507.29)">
      <path d="m0 0 0.041-9.667c0-2.166-3.75-1.583-5.25-1.583-1.75 0-5.416-0.583-5.416 1.5l-0.084 6.417s-0.07 4.261 0.209 4.708c0.625 1 3.12 1.25 4.75 1.25 2 0 2.849 0.051 4.5-0.5 0.75-0.25 1.25-2.125 1.25-2.125m-86.511-13.789s0.322-15.468-0.208-16.333c-0.792-1.292-1.625-2.225-5.417-2.167-2.708 0.042-4.226 1.142-4.75 1.875-0.625 0.875-0.5 14.5-0.5 14.5s-0.058 16.362 0 16.792c0.125 0.917 0.75 1.583 5 1.583 2.875 0 5.369 0.154 5.667-1.333 0.208-1.042 0.208-14.917 0.208-14.917m43.25 13.75 0.041-9.666c0-2.167-3.75-1.584-5.25-1.584-1.75 0-5.416-0.583-5.416 1.5l-0.084 6.417s-0.07 4.262 0.209 4.708c0.625 1 3.12 1.25 4.75 1.25 2 0 2.848 0.051 4.5-0.5 0.75-0.25 1.25-2.125 1.25-2.125m43.281-41.19-0.076 18.104s0.181 1.5-0.944 2.375c-1.272 0.99-4.249 0.926-4.249 0.926s-4.317-0.337-4.876-1.176c-0.5-0.75-0.625-1.75-0.625-1.75l0.083-18.542-11.562 0.021 0.02 42.771c0.061 5.067 6.69 9.471 8.75 9.583l9 0.167 6.212-0.048c6.519 0.262 9.105-6.201 9.622-8.702l0.083-43.667zm-43.261-0.038-0.075 18.103s0.18 1.5-0.945 2.375c-1.272 0.99-4.248 0.926-4.248 0.926s-4.317-0.336-4.877-1.176c-0.5-0.75-0.625-1.75-0.625-1.75l0.084-18.541-11.563 0.02 0.021 42.771c0.06 5.067 6.69 9.471 8.749 9.584l9 0.166 6.211-0.047c6.521 0.262 9.107-6.202 9.623-8.703l0.084-43.666zm-31.811 9.789c-0.101-2.836-2.375-9.915-9.334-9.894l-13.416 0.062c-9.959 0.021-10.709 8.646-10.896 12.771v28.08c-0.021 7.481 1.479 11.92 15.396 12.004h2.166c12.917 0 15.917-4 16.084-11.25zm-43-9.894-5.73-0.021-5.687 0.021-0.021 21.573s0.44 20.056-0.271 21.135c-1.041 1.584-3.791 1.209-5.125 1.209-2.456 0-5 0.416-5.5-1.334-0.565-1.979-0.416-19.416-0.416-19.416l-0.084-23.167h-5.666l-5.584 0.083v52.75l24.917 0.084c3.167-0.25 5.35-2.387 6.994-4.352 1.589-1.898 2.221-4.062 2.173-4.065l-0.084-21.917zm146.91 107.08c-4.123 2.193-38.75 23-91.916 23.834-115.25-0.415-166-85-166-85 25.5-12.5 51.96-50.144 52.333-50.667 28.537-40.04 68.307-102.1 119.84-103.29 16.498-0.38 27.472 9.49 39.998 21.62 45.744 44.303 52.149 126.21 110.75 137.75 0 0-21.75 32.75-65 55.75" fill="#263f78"/>
     </g>
    </g>
   </g>
   <g stroke-width=".75002">
    <g transform="scale(1,-1)" fill="#084895" aria-label="National Oceanic and ">
     <path d="m682.26-688.97h11.3v-66.702h-11.7v47.301l-34.101-47.301h-12v66.702h11.7v-48.601z" style="font-variant-caps:normal;font-variant-east-asian:normal;font-variant-ligatures:normal;font-variant-numeric:normal"/>
     <path d="m742.28-688.97h10.5v-32.001c0-13-9.4003-17.501-20.101-17.501-7.7002 0-14.7 2.5001-20.301 7.8002l4.3001 7.3002c4.2001-4.1001 8.9003-6.1002 14.3-6.1002 6.7002 0 11.3 3.4001 11.3 9.0003v7.2002c-3.5001-4.1001-9.1003-6.2002-15.6-6.2002-7.9002 0-16.801 4.6001-16.801 15.7 0 10.7 8.9003 16 16.801 16 6.4002 0 12-2.3001 15.6-6.4002zm0-11c-2.4001 3.3001-6.9002 5.0002-11.5 5.0002-5.9002 0-10.3-3.4001-10.3-8.6003 0-5.3002 4.4001-8.7003 10.3-8.7003 4.6001 0 9.1003 1.7 11.5 5.0002z" style="font-variant-caps:normal;font-variant-east-asian:normal;font-variant-ligatures:normal;font-variant-numeric:normal"/>
     <path d="m786.05-687.77c4.9001 0 8.0002-1.3 9.9003-3.1001l-2.5001-7.9002c-0.80003 0.90003-2.7001 1.7-4.7001 1.7-3.0001 0-4.6001-2.4001-4.6001-5.7002v-25.301h9.8003v-9.2003h-9.8003v-13.2h-10.5v13.2h-8.0002v9.2003h8.0002v27.901c0 8.0002 4.3001 12.4 12.4 12.4z" style="font-variant-caps:normal;font-variant-east-asian:normal;font-variant-ligatures:normal;font-variant-numeric:normal"/>
     <path d="m813.84-745.27c3.6001 0 6.5002-2.9001 6.5002-6.5002 0-3.6001-2.9001-6.5002-6.5002-6.5002-3.5001 0-6.5002 2.9001-6.5002 6.5002 0 3.6001 3.0001 6.5002 6.5002 6.5002zm-5.2002 56.302h10.5v-48.301h-10.5z" style="font-variant-caps:normal;font-variant-east-asian:normal;font-variant-ligatures:normal;font-variant-numeric:normal"/>
     <path d="m859.71-687.77c15.5 0 24.901-11.5 24.901-25.401 0-13.8-9.4003-25.301-24.901-25.301-15.3 0-24.801 11.5-24.801 25.301 0 13.9 9.5003 25.401 24.801 25.401zm0-9.3003c-8.9003 0-13.9-7.5002-13.9-16.1 0-8.5002 5.0002-16 13.9-16 9.0003 0 14 7.5002 14 16 0 8.6003-5.0002 16.1-14 16.1z" style="font-variant-caps:normal;font-variant-east-asian:normal;font-variant-ligatures:normal;font-variant-numeric:normal"/>
     <path d="m932.99-688.97h10.5v-34.001c0-9.9003-5.2002-15.5-15.6-15.5-7.6002 0-13.8 4.0001-17 7.8002v-6.6002h-10.5v48.301h10.5v-33.701c2.4001-3.3001 7.0002-6.5002 12.4-6.5002 5.9002 0 9.7003 2.5001 9.7003 10z" style="font-variant-caps:normal;font-variant-east-asian:normal;font-variant-ligatures:normal;font-variant-numeric:normal"/>
     <path d="m991.78-688.97h10.5v-32.001c0-13-9.4003-17.501-20.101-17.501-7.7002 0-14.7 2.5001-20.301 7.8002l4.3001 7.3002c4.2001-4.1001 8.9003-6.1002 14.3-6.1002 6.7002 0 11.3 3.4001 11.3 9.0003v7.2002c-3.5001-4.1001-9.1003-6.2002-15.6-6.2002-7.9002 0-16.8 4.6001-16.8 15.7 0 10.7 8.9003 16 16.8 16 6.4002 0 12-2.3001 15.6-6.4002zm0-11c-2.4001 3.3001-6.9002 5.0002-11.5 5.0002-5.9002 0-10.3-3.4001-10.3-8.6003 0-5.3002 4.4001-8.7003 10.3-8.7003 4.6001 0 9.1003 1.7 11.5 5.0002z" style="font-variant-caps:normal;font-variant-east-asian:normal;font-variant-ligatures:normal;font-variant-numeric:normal"/>
     <path d="m1021-688.97h10.5v-66.702h-10.5z" style="font-variant-caps:normal;font-variant-east-asian:normal;font-variant-ligatures:normal;font-variant-numeric:normal"/>
     <path d="m1078.7-722.27c0 19.901 14.1 34.501 34.101 34.501s34.101-14.6 34.101-34.501c0-19.901-14.1-34.501-34.101-34.501s-34.101 14.6-34.101 34.501zm56.202 0c0 13.7-8.7003 24.101-22.101 24.101-13.5 0-22.101-10.4-22.101-24.101 0-13.8 8.6002-24.101 22.101-24.101 13.4 0 22.101 10.3 22.101 24.101z" style="font-variant-caps:normal;font-variant-east-asian:normal;font-variant-ligatures:normal;font-variant-numeric:normal"/>
     <path d="m1160.2-713.17c0 14.7 10.3 25.401 25.001 25.401 9.4003 0 15.1-4.0001 18.5-8.6003l-6.9002-6.4002c-2.7001 3.7001-6.4002 5.7002-11.1 5.7002-8.8003 0-14.6-6.7002-14.6-16.1s5.8001-16 14.6-16c4.7001 0 8.4002 1.9001 11.1 5.7002l6.9002-6.4002c-3.4001-4.6001-9.1002-8.6003-18.5-8.6003-14.7 0-25.001 10.7-25.001 25.301z" style="font-variant-caps:normal;font-variant-east-asian:normal;font-variant-ligatures:normal;font-variant-numeric:normal"/>
     <path d="m1215-713.17c0 15.3 10.8 25.401 25.301 25.401 7.7002 0 14.8-2.4001 19.601-7.0002l-4.8002-6.9002c-3.4001 3.4001-9.0003 5.3002-13.7 5.3002-9.1003 0-14.6-6.0002-15.4-13.3h37.301v-2.5001c0-15.2-9.3003-26.301-23.801-26.301-14.3 0-24.501 11.3-24.501 25.301zm24.501-16.7c9.5002 0 13.4 7.1002 13.6 12.8h-27.201c0.5001-5.9002 4.6002-12.8 13.6-12.8z" style="font-variant-caps:normal;font-variant-east-asian:normal;font-variant-ligatures:normal;font-variant-numeric:normal"/>
     <path d="m1308.4-688.97h10.5v-32.001c0-13-9.4003-17.501-20.101-17.501-7.7002 0-14.7 2.5001-20.301 7.8002l4.3001 7.3002c4.2001-4.1001 8.9003-6.1002 14.3-6.1002 6.7002 0 11.3 3.4001 11.3 9.0003v7.2002c-3.5001-4.1001-9.1003-6.2002-15.6-6.2002-7.9002 0-16.8 4.6001-16.8 15.7 0 10.7 8.9003 16 16.8 16 6.4002 0 12-2.3001 15.6-6.4002zm0-11c-2.4001 3.3001-6.9002 5.0002-11.5 5.0002-5.9001 0-10.3-3.4001-10.3-8.6003 0-5.3002 4.4002-8.7003 10.3-8.7003 4.6002 0 9.1003 1.7 11.5 5.0002z" style="font-variant-caps:normal;font-variant-east-asian:normal;font-variant-ligatures:normal;font-variant-numeric:normal"/>
     <path d="m1370.3-688.97h10.5v-34.001c0-9.9003-5.2002-15.5-15.6-15.5-7.6002 0-13.8 4.0001-17 7.8002v-6.6002h-10.5v48.301h10.5v-33.701c2.4001-3.3001 7.0002-6.5002 12.4-6.5002 5.9002 0 9.7003 2.5001 9.7003 10z" style="font-variant-caps:normal;font-variant-east-asian:normal;font-variant-ligatures:normal;font-variant-numeric:normal"/>
     <path d="m1404.8-745.27c3.6001 0 6.5002-2.9001 6.5002-6.5002 0-3.6001-2.9001-6.5002-6.5002-6.5002-3.5001 0-6.5002 2.9001-6.5002 6.5002 0 3.6001 3.0001 6.5002 6.5002 6.5002zm-5.2001 56.302h10.5v-48.301h-10.5z" style="font-variant-caps:normal;font-variant-east-asian:normal;font-variant-ligatures:normal;font-variant-numeric:normal"/>
     <path d="m1425.9-713.17c0 14.7 10.3 25.401 25.001 25.401 9.4002 0 15.1-4.0001 18.5-8.6003l-6.9002-6.4002c-2.7001 3.7001-6.4002 5.7002-11.1 5.7002-8.8003 0-14.6-6.7002-14.6-16.1s5.8002-16 14.6-16c4.7001 0 8.4002 1.9001 11.1 5.7002l6.9002-6.4002c-3.4001-4.6001-9.1003-8.6003-18.5-8.6003-14.7 0-25.001 10.7-25.001 25.301z" style="font-variant-caps:normal;font-variant-east-asian:normal;font-variant-ligatures:normal;font-variant-numeric:normal"/>
     <path d="m1544.3-688.97h10.5v-32.001c0-13-9.4003-17.501-20.101-17.501-7.7003 0-14.7 2.5001-20.301 7.8002l4.3002 7.3002c4.2001-4.1001 8.9002-6.1002 14.3-6.1002 6.7002 0 11.3 3.4001 11.3 9.0003v7.2002c-3.5001-4.1001-9.1002-6.2002-15.6-6.2002-7.9003 0-16.8 4.6001-16.8 15.7 0 10.7 8.9002 16 16.8 16 6.4002 0 12-2.3001 15.6-6.4002zm0-11c-2.4 3.3001-6.9002 5.0002-11.5 5.0002-5.9002 0-10.3-3.4001-10.3-8.6003 0-5.3002 4.4001-8.7003 10.3-8.7003 4.6001 0 9.1003 1.7 11.5 5.0002z" style="font-variant-caps:normal;font-variant-east-asian:normal;font-variant-ligatures:normal;font-variant-numeric:normal"/>
     <path d="m1606.1-688.97h10.5v-34.001c0-9.9003-5.2001-15.5-15.6-15.5-7.6003 0-13.8 4.0001-17 7.8002v-6.6002h-10.5v48.301h10.5v-33.701c2.4-3.3001 7.0002-6.5002 12.4-6.5002 5.9002 0 9.7003 2.5001 9.7003 10z" style="font-variant-caps:normal;font-variant-east-asian:normal;font-variant-ligatures:normal;font-variant-numeric:normal"/>
     <path d="m1669.4-688.97h10.5v-66.702h-10.5v25.101c-3.9001-5.1002-9.5003-7.9002-15.5-7.9002-12.5 0-21.501 9.8003-21.501 25.401 0 15.9 9.1003 25.301 21.501 25.301 6.2001 0 11.8-3.0001 15.5-7.8002zm0-14.5c-2.4 3.6001-7.5002 6.4002-12.5 6.4002-8.3002 0-13.6-6.7002-13.6-16 0-9.4003 5.3002-16.1 13.6-16.1 5.0002 0 10.1 2.9001 12.5 6.5002z" style="font-variant-caps:normal;font-variant-east-asian:normal;font-variant-ligatures:normal;font-variant-numeric:normal"/>
    </g>
    <g transform="scale(1,-1)" fill="#084895" aria-label="Atmospheric Administration">
     <path d="m682.42-571.96h12.672l-25.939-66.035h-14.454l-25.939 66.035h12.672l4.8512-12.672h31.285zm-20.494-56.234 12.375 33.364h-24.751z" style="font-variant-caps:normal;font-variant-east-asian:normal;font-variant-ligatures:normal;font-variant-numeric:normal"/>
     <path d="m720.87-570.77c4.8512 0 7.9203-1.287 9.8013-3.0691l-2.4751-7.8213c-0.79203 0.89103-2.6731 1.6831-4.6532 1.6831-2.9701 0-4.5542-2.3761-4.5542-5.6432v-25.048h9.7023v-9.1083h-9.7023v-13.068h-10.395v13.068h-7.9203v9.1083h7.9203v27.622c0 7.9203 4.2572 12.276 12.276 12.276z" style="font-variant-caps:normal;font-variant-east-asian:normal;font-variant-ligatures:normal;font-variant-numeric:normal"/>
     <path d="m802.79-571.96h10.395v-34.552c0-9.7023-4.9502-14.454-13.761-14.454-7.1282 0-13.464 4.4552-16.237 8.8113-1.5841-5.2472-5.9402-8.8113-13.068-8.8113-7.2272 0-13.563 4.7522-15.544 7.7223v-6.5342h-10.395v47.819h10.395v-33.364c2.1781-3.1681 6.4352-6.4352 10.989-6.4352 5.6432 0 7.9203 3.4651 7.9203 8.6133v31.186h10.395v-33.463c2.0791-3.0691 6.4352-6.3362 11.088-6.3362 5.5442 0 7.8213 3.4651 7.8213 8.6133z" style="font-variant-caps:normal;font-variant-east-asian:normal;font-variant-ligatures:normal;font-variant-numeric:normal"/>
     <path d="m854.48-570.77c15.346 0 24.652-11.385 24.652-25.147 0-13.662-9.3063-25.048-24.652-25.048-15.148 0-24.553 11.385-24.553 25.048 0 13.761 9.4053 25.147 24.553 25.147zm0-9.2073c-8.8113 0-13.761-7.4252-13.761-15.94 0-8.4153 4.9502-15.841 13.761-15.841 8.9103 0 13.86 7.4252 13.86 15.841 0 8.5143-4.9502 15.94-13.86 15.94z" style="font-variant-caps:normal;font-variant-east-asian:normal;font-variant-ligatures:normal;font-variant-numeric:normal"/>
     <path d="m891.55-578.2c4.9502 4.8512 12.375 7.4252 20.494 7.4252 12.87 0 19.9-6.4352 19.9-14.85 0-11.286-10.197-13.662-18.514-15.445-5.6432-1.287-10.395-2.5741-10.395-6.2372 0-3.3661 3.4651-5.3462 8.9103-5.3462 5.9402 0 11.286 2.4751 14.157 5.7422l4.3562-7.3262c-4.3562-3.8611-10.494-6.7322-18.613-6.7322-12.078 0-18.811 6.7322-18.811 14.553 0 10.692 9.8013 12.87 18.019 14.652 5.8412 1.287 10.89 2.7721 10.89 6.9302 0 3.5641-3.1681 5.8412-9.4053 5.8412s-12.87-3.2671-16.237-6.7322z" style="font-variant-caps:normal;font-variant-east-asian:normal;font-variant-ligatures:normal;font-variant-numeric:normal"/>
     <path d="m959.04-553.75v-24.85c3.8611 5.1482 9.3063 7.8213 15.346 7.8213 12.375 0 21.187-9.4053 21.187-25.147 0-15.742-8.8113-25.048-21.187-25.048-6.2372 0-11.781 2.9701-15.346 7.7223v-6.5342h-10.395v66.035zm25.741-42.175c0 9.3063-5.2472 15.94-13.464 15.94-4.8512 0-9.9993-2.9701-12.276-6.4352v-18.91c2.2771-3.5641 7.4252-6.4352 12.276-6.4352 8.2173 0 13.464 6.6332 13.464 15.841z" style="font-variant-caps:normal;font-variant-east-asian:normal;font-variant-ligatures:normal;font-variant-numeric:normal"/>
     <path d="m1044.6-571.96h10.395v-33.859c0-9.8013-5.1481-15.148-15.444-15.148-7.5242 0-13.762 3.9601-16.93 7.7223v-24.751h-10.395v66.035h10.395v-33.364c2.4751-3.2671 7.0293-6.4352 12.276-6.4352 5.8411 0 9.7023 2.2771 9.7023 9.7023z" style="font-variant-caps:normal;font-variant-east-asian:normal;font-variant-ligatures:normal;font-variant-numeric:normal"/>
     <path d="m1071.7-595.92c0 15.148 10.692 25.147 25.048 25.147 7.6232 0 14.652-2.3761 19.405-6.9302l-4.7521-6.8312c-3.3661 3.3661-8.9103 5.2472-13.564 5.2472-9.0093 0-14.454-5.9402-15.246-13.167h36.928v-2.4751c0-15.048-9.2073-26.038-23.563-26.038-14.158 0-24.256 11.187-24.256 25.048zm24.256-16.534c9.4053 0 13.266 7.0292 13.464 12.672h-26.929c0.495-5.8412 4.5542-12.672 13.464-12.672z" style="font-variant-caps:normal;font-variant-east-asian:normal;font-variant-ligatures:normal;font-variant-numeric:normal"/>
     <path d="m1135.9-571.96h10.395v-32.572c2.079-3.3661 7.9202-6.3362 12.276-6.3362 1.287 0 2.376 0.099 3.2671 0.29701v-10.296c-6.2372 0-11.979 3.5641-15.544 8.1183v-7.0292h-10.395z" style="font-variant-caps:normal;font-variant-east-asian:normal;font-variant-ligatures:normal;font-variant-numeric:normal"/>
     <path d="m1181.6-627.7c3.5641 0 6.4352-2.8711 6.4352-6.4352s-2.8711-6.4352-6.4352-6.4352c-3.4651 0-6.4352 2.8711-6.4352 6.4352s2.9701 6.4352 6.4352 6.4352zm-5.1482 55.739h10.395v-47.819h-10.395z" style="font-variant-caps:normal;font-variant-east-asian:normal;font-variant-ligatures:normal;font-variant-numeric:normal"/>
     <path d="m1203.4-595.92c0 14.553 10.197 25.147 24.751 25.147 9.3064 0 14.95-3.9601 18.316-8.5143l-6.8313-6.3362c-2.6731 3.6631-6.3362 5.6432-10.989 5.6432-8.7123 0-14.454-6.6332-14.454-15.94s5.7422-15.841 14.454-15.841c4.6531 0 8.3162 1.8811 10.989 5.6432l6.8313-6.3362c-3.3662-4.5542-9.0093-8.5143-18.316-8.5143-14.553 0-24.751 10.593-24.751 25.048z" style="font-variant-caps:normal;font-variant-east-asian:normal;font-variant-ligatures:normal;font-variant-numeric:normal"/>
     <path d="m1340.4-571.96h12.672l-25.939-66.035h-14.454l-25.939 66.035h12.672l4.8511-12.672h31.285zm-20.494-56.234 12.375 33.364h-24.751z" style="font-variant-caps:normal;font-variant-east-asian:normal;font-variant-ligatures:normal;font-variant-numeric:normal"/>
     <path d="m1399.9-571.96h10.395v-66.035h-10.395v24.85c-3.8612-5.0492-9.4054-7.8213-15.346-7.8213-12.376 0-21.286 9.7023-21.286 25.147 0 15.742 9.0093 25.048 21.286 25.048 6.1382 0 11.682-2.9701 15.346-7.7222zm0-14.355c-2.3761 3.5641-7.4253 6.3362-12.376 6.3362-8.2172 0-13.464-6.6332-13.464-15.841 0-9.3063 5.2472-15.94 13.464-15.94 4.9502 0 9.9994 2.8711 12.376 6.4352z" style="font-variant-caps:normal;font-variant-east-asian:normal;font-variant-ligatures:normal;font-variant-numeric:normal"/>
     <path d="m1488.4-571.96h10.395v-34.552c0-9.7023-4.9502-14.454-13.762-14.454-7.1282 0-13.464 4.4552-16.236 8.8113-1.5841-5.2472-5.9402-8.8113-13.068-8.8113-7.2272 0-13.563 4.7522-15.544 7.7223v-6.5342h-10.395v47.819h10.395v-33.364c2.1781-3.1681 6.4352-6.4352 10.989-6.4352 5.6432 0 7.9203 3.4651 7.9203 8.6133v31.186h10.395v-33.463c2.0791-3.0691 6.4352-6.3362 11.088-6.3362 5.5442 0 7.8212 3.4651 7.8212 8.6133z" style="font-variant-caps:normal;font-variant-east-asian:normal;font-variant-ligatures:normal;font-variant-numeric:normal"/>
     <path d="m1523.7-627.7c3.5641 0 6.4352-2.8711 6.4352-6.4352s-2.8711-6.4352-6.4352-6.4352c-3.4652 0-6.4353 2.8711-6.4353 6.4352s2.9701 6.4352 6.4353 6.4352zm-5.1482 55.739h10.395v-47.819h-10.395z" style="font-variant-caps:normal;font-variant-east-asian:normal;font-variant-ligatures:normal;font-variant-numeric:normal"/>
     <path d="m1580.7-571.96h10.395v-33.661c0-9.8013-5.1482-15.346-15.444-15.346-7.5243 0-13.662 3.9601-16.831 7.7223v-6.5342h-10.395v47.819h10.395v-33.364c2.3761-3.2671 6.9303-6.4352 12.276-6.4352 5.8412 0 9.6034 2.4751 9.6034 9.9003z" style="font-variant-caps:normal;font-variant-east-asian:normal;font-variant-ligatures:normal;font-variant-numeric:normal"/>
     <path d="m1615.8-627.7c3.5641 0 6.4352-2.8711 6.4352-6.4352s-2.8711-6.4352-6.4352-6.4352c-3.4651 0-6.4352 2.8711-6.4352 6.4352s2.9701 6.4352 6.4352 6.4352zm-5.1482 55.739h10.395v-47.819h-10.395z" style="font-variant-caps:normal;font-variant-east-asian:normal;font-variant-ligatures:normal;font-variant-numeric:normal"/>
     <path d="m1636.4-578.2c4.9501 4.8512 12.375 7.4252 20.494 7.4252 12.87 0 19.9-6.4352 19.9-14.85 0-11.286-10.197-13.662-18.514-15.445-5.6432-1.287-10.395-2.5741-10.395-6.2372 0-3.3661 3.4651-5.3462 8.9102-5.3462 5.9402 0 11.286 2.4751 14.158 5.7422l4.3562-7.3262c-4.3562-3.8611-10.494-6.7322-18.613-6.7322-12.078 0-18.811 6.7322-18.811 14.553 0 10.692 9.8013 12.87 18.019 14.652 5.8412 1.287 10.89 2.7721 10.89 6.9302 0 3.5641-3.1681 5.8412-9.4053 5.8412s-12.87-3.2671-16.237-6.7322z" style="font-variant-caps:normal;font-variant-east-asian:normal;font-variant-ligatures:normal;font-variant-numeric:normal"/>
     <path d="m1707.9-570.77c4.8512 0 7.9203-1.287 9.8014-3.0691l-2.4751-7.8213c-0.792 0.89103-2.6731 1.6831-4.6532 1.6831-2.9701 0-4.5541-2.3761-4.5541-5.6432v-25.048h9.7023v-9.1083h-9.7023v-13.068h-10.395v13.068h-7.9202v9.1083h7.9202v27.622c0 7.9203 4.2572 12.276 12.276 12.276z" style="font-variant-caps:normal;font-variant-east-asian:normal;font-variant-ligatures:normal;font-variant-numeric:normal"/>
     <path d="m1731.2-571.96h10.395v-32.572c2.0791-3.3661 7.9203-6.3362 12.276-6.3362 1.2871 0 2.3761 0.099 3.2672 0.29701v-10.296c-6.2372 0-11.979 3.5641-15.544 8.1183v-7.0292h-10.395z" style="font-variant-caps:normal;font-variant-east-asian:normal;font-variant-ligatures:normal;font-variant-numeric:normal"/>
     <path d="m1801-571.96h10.395v-31.681c0-12.87-9.3063-17.326-19.9-17.326-7.6233 0-14.554 2.4751-20.098 7.7223l4.2571 7.2272c4.1582-4.0591 8.8113-6.0392 14.158-6.0392 6.6332 0 11.187 3.3661 11.187 8.9103v7.1282c-3.4651-4.0591-9.0093-6.1382-15.444-6.1382-7.8213 0-16.633 4.5542-16.633 15.544 0 10.593 8.8113 15.841 16.633 15.841 6.3362 0 11.88-2.2771 15.444-6.3362zm0-10.89c-2.3761 3.2671-6.8312 4.9502-11.385 4.9502-5.8412 0-10.197-3.3661-10.197-8.5143 0-5.2472 4.3561-8.6133 10.197-8.6133 4.5542 0 9.0093 1.6831 11.385 4.9502z" style="font-variant-caps:normal;font-variant-east-asian:normal;font-variant-ligatures:normal;font-variant-numeric:normal"/>
     <path d="m1845.3-570.77c4.8512 0 7.9203-1.287 9.8014-3.0691l-2.4751-7.8213c-0.792 0.89103-2.6731 1.6831-4.6532 1.6831-2.9701 0-4.5541-2.3761-4.5541-5.6432v-25.048h9.7023v-9.1083h-9.7023v-13.068h-10.395v13.068h-7.9202v9.1083h7.9202v27.622c0 7.9203 4.2572 12.276 12.276 12.276z" style="font-variant-caps:normal;font-variant-east-asian:normal;font-variant-ligatures:normal;font-variant-numeric:normal"/>
     <path d="m1873.7-627.7c3.5642 0 6.4353-2.8711 6.4353-6.4352s-2.8711-6.4352-6.4353-6.4352c-3.4651 0-6.4352 2.8711-6.4352 6.4352s2.9701 6.4352 6.4352 6.4352zm-5.1481 55.739h10.395v-47.819h-10.395z" style="font-variant-caps:normal;font-variant-east-asian:normal;font-variant-ligatures:normal;font-variant-numeric:normal"/>
     <path d="m1920.1-570.77c15.346 0 24.652-11.385 24.652-25.147 0-13.662-9.3063-25.048-24.652-25.048-15.148 0-24.553 11.385-24.553 25.048 0 13.761 9.4053 25.147 24.553 25.147zm0-9.2073c-8.8113 0-13.762-7.4252-13.762-15.94 0-8.4153 4.9502-15.841 13.762-15.841 8.9103 0 13.86 7.4252 13.86 15.841 0 8.5143-4.9502 15.94-13.86 15.94z" style="font-variant-caps:normal;font-variant-east-asian:normal;font-variant-ligatures:normal;font-variant-numeric:normal"/>
     <path d="m1993.6-571.96h10.395v-33.661c0-9.8013-5.1482-15.346-15.444-15.346-7.5243 0-13.662 3.9601-16.831 7.7223v-6.5342h-10.395v47.819h10.395v-33.364c2.3761-3.2671 6.9303-6.4352 12.276-6.4352 5.8412 0 9.6034 2.4751 9.6034 9.9003z" style="font-variant-caps:normal;font-variant-east-asian:normal;font-variant-ligatures:normal;font-variant-numeric:normal"/>
    </g>
    <g transform="scale(1,-1)" aria-label="U.S. Department of Commerce">
     <path d="m636.42-488.76c0 10.004 5.5512 16.532 16.593 16.532 11.041 0 16.593-6.4662 16.593-16.593v-24.828h-5.0632v24.767c0 7.4422-4.0261 12.139-11.529 12.139-7.5032 0-11.529-4.6972-11.529-12.139v-24.767h-5.0632z" style="font-variant-caps:normal;font-variant-east-asian:normal;font-variant-ligatures:normal;font-variant-numeric:normal"/>
     <path d="m676.18-475.7c0 1.8301 1.525 3.3551 3.3551 3.3551s3.3551-1.525 3.3551-3.3551-1.525-3.3551-3.3551-3.3551-3.3551 1.525-3.3551 3.3551z" style="font-variant-caps:normal;font-variant-east-asian:normal;font-variant-ligatures:normal;font-variant-numeric:normal"/>
     <path d="m688.9-478.69c3.3551 3.7821 8.5403 6.4662 15.617 6.4662 10.98 0 15.006-6.0392 15.006-11.956 0-8.5403-7.5642-10.614-14.213-12.383-5.1852-1.403-9.8823-2.6231-9.8823-6.7102 0-3.8431 3.4771-6.4662 8.3573-6.4662 4.4532 0 8.7233 1.525 11.773 4.8802l3.0501-3.7211c-3.4161-3.5991-8.2353-5.6732-14.457-5.6732-7.9913 0-13.969 4.5752-13.969 11.285 0 7.9913 7.2592 9.8213 13.786 11.529 5.3682 1.464 10.309 2.8061 10.309 7.6862 0 3.1111-2.3181 7.0152-9.5773 7.0152-5.7342 0-10.126-2.8061-12.81-5.7952z" style="font-variant-caps:normal;font-variant-east-asian:normal;font-variant-ligatures:normal;font-variant-numeric:normal"/>
     <path d="m725.99-475.7c0 1.8301 1.525 3.3551 3.3551 3.3551s3.3551-1.525 3.3551-3.3551-1.525-3.3551-3.3551-3.3551-3.3551 1.525-3.3551 3.3551z" style="font-variant-caps:normal;font-variant-east-asian:normal;font-variant-ligatures:normal;font-variant-numeric:normal"/>
     <path d="m756.87-472.96h13.908c12.627 0 20.863-8.7233 20.863-20.314 0-11.529-8.2353-20.375-20.863-20.375h-13.908zm5.0632-4.5142v-31.66h8.8453c10.065 0 15.617 7.0762 15.617 15.861 0 8.7233-5.7342 15.8-15.617 15.8z" style="font-variant-caps:normal;font-variant-east-asian:normal;font-variant-ligatures:normal;font-variant-numeric:normal"/>
     <path d="m797.63-487.72c0 9.2113 6.2832 15.495 15.006 15.495 4.8192 0 8.7843-1.586 11.712-4.5142l-2.1961-2.9891c-2.3181 2.3791-5.7342 3.7211-9.0893 3.7211-6.3442 0-10.248-4.6362-10.614-10.187h23.852v-1.159c0-8.8453-5.2462-15.8-14.152-15.8-8.4183 0-14.518 6.8932-14.518 15.434zm14.457-11.651c6.7102 0 9.6383 5.4292 9.6993 9.8213h-19.338c0.24401-4.5141 3.3551-9.8213 9.6383-9.8213z" style="font-variant-caps:normal;font-variant-east-asian:normal;font-variant-ligatures:normal;font-variant-numeric:normal"/>
     <path d="m838.23-461.73v-15.678c2.3791 3.2941 5.9172 5.1852 9.9433 5.1852 7.7472 0 13.115-5.9782 13.115-15.495 0-9.5773-5.3682-15.434-13.115-15.434-4.1481 0-7.8083 2.1351-9.9433 5.1242v-4.3922h-4.5752v40.688zm18.24-25.987c0 6.5272-3.5381 11.407-9.4553 11.407-3.5991 0-7.1982-2.1961-8.7843-4.7582v-13.298c1.586-2.5621 5.1852-4.6972 8.7843-4.6972 5.9172 0 9.4553 4.8192 9.4553 11.346z" style="font-variant-caps:normal;font-variant-east-asian:normal;font-variant-ligatures:normal;font-variant-numeric:normal"/>
     <path d="m887.11-472.96h4.5752v-20.253c0-7.1372-5.1852-9.9433-11.407-9.9433-4.8192 0-8.6013 1.586-11.773 4.8802l2.1351 3.1721c2.6231-2.8061 5.4902-4.0871 9.0283-4.0871 4.2701 0 7.4422 2.2571 7.4422 6.2222v5.3072c-2.3791-2.7451-5.7342-4.0261-9.7603-4.0261-5.0022 0-10.309 3.1111-10.309 9.6993 0 6.4052 5.3072 9.7603 10.309 9.7603 3.9651 0 7.3202-1.403 9.7603-4.0871zm0-6.2222c-1.769 2.4401-4.8802 3.6601-8.1133 3.6601-4.2701 0-7.2592-2.6841-7.2592-6.4052 0-3.7821 2.9891-6.4662 7.2592-6.4662 3.2331 0 6.3442 1.22 8.1133 3.6601z" style="font-variant-caps:normal;font-variant-east-asian:normal;font-variant-ligatures:normal;font-variant-numeric:normal"/>
     <path d="m900.85-472.96h4.5752v-20.863c1.342-2.3791 5.1852-4.6972 7.9913-4.6972 0.73203 0 1.281 0.061 1.8301 0.18301v-4.6972c-4.0261 0-7.4422 2.2571-9.8213 5.3682v-4.7582h-4.5752z" style="font-variant-caps:normal;font-variant-east-asian:normal;font-variant-ligatures:normal;font-variant-numeric:normal"/>
     <path d="m928.43-472.23c2.6841 0 4.3311-0.79302 5.4902-1.8911l-1.342-3.4161c-0.61002 0.67102-1.8301 1.22-3.1111 1.22-2.0131 0-2.9891-1.586-2.9891-3.7821v-18.301h5.9782v-4.0261h-5.9782v-8.0523h-4.5752v8.0523h-4.8802v4.0261h4.8802v19.277c0 4.3921 2.1961 6.8932 6.5272 6.8932z" style="font-variant-caps:normal;font-variant-east-asian:normal;font-variant-ligatures:normal;font-variant-numeric:normal"/>
     <path d="m974.54-472.96h4.5752v-21.29c0-5.9172-2.8671-8.9063-8.2353-8.9063-4.2701 0-8.2353 2.8061-9.8823 5.4902-0.85402-3.0501-3.4161-5.4902-7.9303-5.4902-4.3311 0-8.2963 3.1111-9.5163 5.0022v-4.2701h-4.5752v29.464h4.5752v-21.534c1.5861-2.3791 4.7582-4.5752 7.7473-4.5752 3.8431 0 5.4292 2.3791 5.4292 6.1002v20.009h4.5752v-21.595c1.525-2.3181 4.7582-4.5142 7.8083-4.5142 3.7821 0 5.4292 2.3791 5.4292 6.1002z" style="font-variant-caps:normal;font-variant-east-asian:normal;font-variant-ligatures:normal;font-variant-numeric:normal"/>
     <path d="m986.6-487.72c0 9.2113 6.2832 15.495 15.006 15.495 4.8192 0 8.7843-1.586 11.712-4.5142l-2.1961-2.9891c-2.3181 2.3791-5.7342 3.7211-9.0893 3.7211-6.3442 0-10.248-4.6362-10.614-10.187h23.852v-1.159c0-8.8453-5.2462-15.8-14.152-15.8-8.4183 0-14.518 6.8932-14.518 15.434zm14.457-11.651c6.7102 0 9.6383 5.4292 9.6993 9.8213h-19.338c0.24401-4.5141 3.3551-9.8213 9.6383-9.8213z" style="font-variant-caps:normal;font-variant-east-asian:normal;font-variant-ligatures:normal;font-variant-numeric:normal"/>
     <path d="m1042.5-472.96h4.5751v-20.68c0-6.4052-3.2331-9.5163-9.3943-9.5163-4.3922 0-8.4183 2.5621-10.492 5.0022v-4.2701h-4.5751v29.464h4.5751v-21.534c1.7081-2.3791 5.1242-4.5752 8.7233-4.5752 3.9652 0 6.5883 1.6471 6.5883 6.8322z" style="font-variant-caps:normal;font-variant-east-asian:normal;font-variant-ligatures:normal;font-variant-numeric:normal"/>
     <path d="m1063.7-472.23c2.6841 0 4.3311-0.79302 5.4902-1.8911l-1.3421-3.4161c-0.61 0.67102-1.83 1.22-3.1111 1.22-2.013 0-2.9891-1.586-2.9891-3.7821v-18.301h5.9782v-4.0261h-5.9782v-8.0523h-4.5751v8.0523h-4.8802v4.0261h4.8802v19.277c0 4.3921 2.1961 6.8932 6.5272 6.8932z" style="font-variant-caps:normal;font-variant-east-asian:normal;font-variant-ligatures:normal;font-variant-numeric:normal"/>
     <path d="m1102.8-472.23c8.9673 0 14.579-6.9542 14.579-15.495s-5.6121-15.434-14.579-15.434-14.58 6.8932-14.58 15.434 5.6122 15.495 14.58 15.495zm0-4.0871c-6.2832 0-9.8214-5.3682-9.8214-11.407 0-5.9782 3.5382-11.346 9.8214-11.346s9.7603 5.3682 9.7603 11.346c0 6.0392-3.4771 11.407-9.7603 11.407z" style="font-variant-caps:normal;font-variant-east-asian:normal;font-variant-ligatures:normal;font-variant-numeric:normal"/>
     <path d="m1126.1-472.96h4.5751v-25.438h5.9782v-4.0261h-5.9782v-2.2571c0-3.7211 1.6471-5.7952 4.6362-5.7952 1.037 0 1.891 0.24401 2.623 0.67102l1.1591-3.4161c-1.1591-0.73203-2.7451-1.037-4.4532-1.037-5.1241 0-8.5402 3.4771-8.5402 9.5773v2.2571h-4.8802v4.0261h4.8802z" style="font-variant-caps:normal;font-variant-east-asian:normal;font-variant-ligatures:normal;font-variant-numeric:normal"/>
     <path d="m1177.1-472.23c7.3812 0 12.261-3.4161 15.678-8.0523l-4.3312-2.3791c-2.318 3.4771-6.5272 5.9172-11.346 5.9172-8.7233 0-15.494-6.8932-15.494-16.532 0-9.6993 6.7712-16.532 15.494-16.532 4.8191 0 9.0283 2.5011 11.346 5.9172l4.2702-2.3791c-3.2331-4.5752-8.2353-8.0523-15.616-8.0523-11.529 0-20.741 8.5403-20.741 21.046s9.2113 21.046 20.741 21.046z" style="font-variant-caps:normal;font-variant-east-asian:normal;font-variant-ligatures:normal;font-variant-numeric:normal"/>
     <path d="m1211.9-472.23c8.9672 0 14.579-6.9542 14.579-15.495s-5.6122-15.434-14.579-15.434c-8.9673 0-14.58 6.8932-14.58 15.434s5.6122 15.495 14.58 15.495zm0-4.0871c-6.2833 0-9.8214-5.3682-9.8214-11.407 0-5.9782 3.5381-11.346 9.8214-11.346 6.2832 0 9.7603 5.3682 9.7603 11.346 0 6.0392-3.4771 11.407-9.7603 11.407z" style="font-variant-caps:normal;font-variant-east-asian:normal;font-variant-ligatures:normal;font-variant-numeric:normal"/>
     <path d="m1269.5-472.96h4.5751v-21.29c0-5.9172-2.8671-8.9063-8.2353-8.9063-4.2701 0-8.2352 2.8061-9.8823 5.4902-0.854-3.0501-3.4161-5.4902-7.9302-5.4902-4.3312 0-8.2963 3.1111-9.5164 5.0022v-4.2701h-4.5751v29.464h4.5751v-21.534c1.5861-2.3791 4.7582-4.5752 7.7473-4.5752 3.8431 0 5.4292 2.3791 5.4292 6.1002v20.009h4.5751v-21.595c1.5251-2.3181 4.7582-4.5142 7.8083-4.5142 3.7821 0 5.4292 2.3791 5.4292 6.1002z" style="font-variant-caps:normal;font-variant-east-asian:normal;font-variant-ligatures:normal;font-variant-numeric:normal"/>
     <path d="m1318.9-472.96h4.5751v-21.29c0-5.9172-2.8671-8.9063-8.2353-8.9063-4.2701 0-8.2352 2.8061-9.8823 5.4902-0.854-3.0501-3.4161-5.4902-7.9302-5.4902-4.3312 0-8.2963 3.1111-9.5163 5.0022v-4.2701h-4.5752v29.464h4.5752v-21.534c1.586-2.3791 4.7581-4.5752 7.7472-4.5752 3.8431 0 5.4292 2.3791 5.4292 6.1002v20.009h4.5751v-21.595c1.5251-2.3181 4.7582-4.5142 7.8083-4.5142 3.7821 0 5.4292 2.3791 5.4292 6.1002z" style="font-variant-caps:normal;font-variant-east-asian:normal;font-variant-ligatures:normal;font-variant-numeric:normal"/>
     <path d="m1330.9-487.72c0 9.2113 6.2832 15.495 15.006 15.495 4.8192 0 8.7843-1.586 11.712-4.5142l-2.1961-2.9891c-2.3181 2.3791-5.7342 3.7211-9.0893 3.7211-6.3442 0-10.248-4.6362-10.614-10.187h23.852v-1.159c0-8.8453-5.2462-15.8-14.152-15.8-8.4183 0-14.518 6.8932-14.518 15.434zm14.458-11.651c6.7102 0 9.6383 5.4292 9.6993 9.8213h-19.338c0.244-4.5141 3.3551-9.8213 9.6383-9.8213z" style="font-variant-caps:normal;font-variant-east-asian:normal;font-variant-ligatures:normal;font-variant-numeric:normal"/>
     <path d="m1366.9-472.96h4.5751v-20.863c1.3421-2.3791 5.1852-4.6972 7.9913-4.6972 0.732 0 1.281 0.061 1.83 0.18301v-4.6972c-4.0261 0-7.4422 2.2571-9.8213 5.3682v-4.7582h-4.5751z" style="font-variant-caps:normal;font-variant-east-asian:normal;font-variant-ligatures:normal;font-variant-numeric:normal"/>
     <path d="m1385.4-487.72c0 8.7843 5.9172 15.495 14.702 15.495 5.3682 0 8.5403-2.1961 10.797-5.1242l-3.0501-2.8061c-1.9521 2.6231-4.4532 3.8431-7.5033 3.8431-6.2832 0-10.187-4.8802-10.187-11.407 0-6.5272 3.9041-11.346 10.187-11.346 3.0501 0 5.5512 1.159 7.5033 3.8431l3.0501-2.8061c-2.2571-2.9281-5.4292-5.1242-10.797-5.1242-8.7843 0-14.702 6.7102-14.702 15.434z" style="font-variant-caps:normal;font-variant-east-asian:normal;font-variant-ligatures:normal;font-variant-numeric:normal"/>
     <path d="m1415.5-487.72c0 9.2113 6.2832 15.495 15.006 15.495 4.8192 0 8.7843-1.586 11.712-4.5142l-2.1961-2.9891c-2.3181 2.3791-5.7342 3.7211-9.0893 3.7211-6.3442 0-10.248-4.6362-10.614-10.187h23.852v-1.159c0-8.8453-5.2461-15.8-14.152-15.8-8.4183 0-14.518 6.8932-14.518 15.434zm14.458-11.651c6.7102 0 9.6383 5.4292 9.6993 9.8213h-19.338c0.244-4.5141 3.3551-9.8213 9.6383-9.8213z" style="font-variant-caps:normal;font-variant-east-asian:normal;font-variant-ligatures:normal;font-variant-numeric:normal"/>
    </g>
   </g>
  </g>
 </g>
</svg>
