<?xml version="1.0" encoding="UTF-8" standalone="no"?>
<!-- Created with Inkscape (http://www.inkscape.org/) -->

<svg
   xmlns:dc="http://purl.org/dc/elements/1.1/"
   xmlns:cc="http://creativecommons.org/ns#"
   xmlns:rdf="http://www.w3.org/1999/02/22-rdf-syntax-ns#"
   xmlns:svg="http://www.w3.org/2000/svg"
   xmlns="http://www.w3.org/2000/svg"
   xmlns:sodipodi="http://sodipodi.sourceforge.net/DTD/sodipodi-0.dtd"
   xmlns:inkscape="http://www.inkscape.org/namespaces/inkscape"
   id="svg3355"
   version="1.1"
   inkscape:version="0.91 r13725"
   xml:space="preserve"
   width="237.3625"
   height="237.3625"
   viewBox="0 0 237.3625 237.3625"
   sodipodi:docname="go_rgb.svg"><metadata
     id="metadata3361"><rdf:RDF><cc:Work
         rdf:about=""><dc:format>image/svg+xml</dc:format><dc:type
           rdf:resource="http://purl.org/dc/dcmitype/StillImage" /><dc:title></dc:title></cc:Work></rdf:RDF></metadata><defs
     id="defs3359" /><sodipodi:namedview
     pagecolor="#ffffff"
     bordercolor="#666666"
     borderopacity="1"
     objecttolerance="10"
     gridtolerance="10"
     guidetolerance="10"
     inkscape:pageopacity="0"
     inkscape:pageshadow="2"
     inkscape:window-width="1449"
     inkscape:window-height="862"
     id="namedview3357"
     showgrid="false"
     inkscape:zoom="2.7342145"
     inkscape:cx="118.68125"
     inkscape:cy="118.68125"
     inkscape:window-x="0"
     inkscape:window-y="0"
     inkscape:window-maximized="0"
     inkscape:current-layer="g3363" /><g
     id="g3363"
     inkscape:groupmode="layer"
     inkscape:label="ink_ext_XXXXXX"
     transform="matrix(1.25,0,0,-1.25,0,237.3625)"><g
       id="g3365"
       transform="scale(0.1,0.1)"><path
         d="m 266.695,1491.61 -0.371,0.25 c -6.32,4.43 -11.976,5.55 -16.972,3.38 -5,-2.18 -12.18,-9.94 -21.543,-23.32 l -17.071,-24.41 c -10.015,-14.3 -14.707,-24.67 -14.082,-31.08 0.617,-6.42 6.485,-13.53 17.598,-21.3 l 19.051,-13.34 c 9.883,-6.91 18.254,-9.4 25.117,-7.42 6.855,1.96 14.973,9.64 24.336,23.01 l 16.945,24.21 c 8.418,12.03 13.133,21.08 14.129,27.14 1.008,6.07 -1.168,10.97 -6.504,14.71 -0.734,0.52 -2.051,1.24 -3.937,2.22 -0.188,0.11 -0.34,0.21 -0.465,0.31 l -34.473,-49.26 -27.707,19.4 64.953,92.8 45.02,-31.52 c 12.879,-9.01 18.699,-20.19 17.449,-33.53 -1.242,-13.36 -10.156,-31.88 -26.746,-55.57 l -32.598,-46.58 c -10.011,-14.3 -18.176,-24.32 -24.472,-30.06 -6.301,-5.74 -12.95,-9.67 -19.942,-11.82 -8.222,-2.48 -16.387,-2.75 -24.504,-0.81 -8.113,1.92 -17.019,6.28 -26.718,13.06 l -37.372,26.17 c -19.64,13.75 -30.078,27.98 -31.339,42.72 -1.258,14.74 6.679,34.35 23.828,58.83 l 32.734,46.75 c 10.566,15.11 19.035,25.78 25.41,32.01 6.379,6.25 12.61,10.3 18.672,12.17 6.324,1.98 13.008,2.03 20.067,0.16 7.054,-1.88 14.816,-5.77 23.285,-11.71 2.023,-1.41 3.582,-2.53 4.668,-3.33 1.078,-0.81 2.058,-1.56 2.937,-2.26 l -29.383,-41.98"
         style="fill:#4ca5e0;fill-opacity:1;fill-rule:nonzero;stroke:none"
         id="path3367"
         inkscape:connector-curvature="0" /><path
         d="m 503.023,1616.5 27.375,17.48 c 15.211,9.72 24.098,18.07 26.649,25.09 2.547,7 0.512,15.68 -6.102,26.04 l -12.754,19.97 c -6.613,10.36 -13.636,15.85 -21.066,16.49 -7.422,0.64 -18.742,-3.9 -33.961,-13.63 l -27.562,-17.6 c -15.528,-9.91 -24.485,-18.34 -26.852,-25.28 -2.367,-6.92 -0.105,-15.81 6.781,-26.59 l 12.52,-19.61 c 6.496,-10.16 13.488,-15.52 20.996,-16.06 7.5,-0.55 18.824,4.03 33.976,13.7 z m 10.848,-42.67 c -16.473,-10.53 -29.012,-17.48 -37.598,-20.88 -8.582,-3.4 -16.425,-4.82 -23.523,-4.29 -8.016,0.57 -15.305,3.36 -21.875,8.36 -6.574,5.02 -13.301,12.91 -20.199,23.71 l -24.559,38.45 c -7.539,11.81 -12.304,21.91 -14.297,30.34 -1.996,8.4 -1.566,16.36 1.282,23.88 2.48,6.55 7.156,13.11 14.05,19.64 6.895,6.52 18.332,14.9 34.309,25.1 l 50.664,32.35 c 16.039,10.24 28.504,17.14 37.395,20.69 8.886,3.54 16.804,5.03 23.734,4.48 7.777,-0.63 15.082,-3.61 21.906,-8.95 6.828,-5.32 13.664,-13.36 20.52,-24.08 l 25.097,-39.32 c 6.934,-10.85 11.352,-20.45 13.262,-28.79 1.902,-8.34 1.524,-16.21 -1.133,-23.59 -2.441,-6.62 -7.07,-13.15 -13.89,-19.6 -6.821,-6.44 -18.371,-14.87 -34.661,-25.26 l -50.484,-32.24"
         style="fill:#4ca5e0;fill-opacity:1;fill-rule:nonzero;stroke:none"
         id="path3369"
         inkscape:connector-curvature="0" /><path
         d="m 764.98,1774.43 11.29,-41.31 -73.067,-19.96 -11.269,41.3 73.046,19.97"
         style="fill:#4ca5e0;fill-opacity:1;fill-rule:nonzero;stroke:none"
         id="path3371"
         inkscape:connector-curvature="0" /><path
         d="m 1046.33,1769.69 49.06,-11.79 -0.7,-2.95 c -1.49,-6.11 -1,-10.6 1.46,-13.46 2.46,-2.89 8.47,-5.48 18.01,-7.79 l 62.34,-15.11 c 6.13,-1.49 10.75,-1.51 13.87,-0.08 3.13,1.45 5.27,4.57 6.43,9.37 1.19,4.88 0.52,8.75 -1.99,11.58 -2.51,2.85 -8.66,5.84 -18.46,8.99 l -77.54,20.66 c -19.38,5.31 -31.67,12.22 -36.9,20.73 -5.21,8.51 -5.64,21.8 -1.25,39.86 2.25,9.31 5.02,16.77 8.3,22.38 3.31,5.6 7.43,9.9 12.41,12.94 5.82,3.37 12.79,5.07 20.9,5.11 8.09,0.05 20.78,-2.03 38.02,-6.21 l 75.8,-18.38 c 18.78,-4.55 31.47,-11.25 38.08,-20.1 6.6,-8.85 8.05,-20.96 4.32,-36.31 -0.26,-1.03 -0.53,-2.13 -0.86,-3.27 -0.32,-1.15 -0.9,-3.02 -1.75,-5.58 l -47.83,11.6 0.15,0.65 c 1.31,5.38 0.92,9.76 -1.15,13.11 -2.08,3.36 -5.84,5.69 -11.31,7.02 l -57.22,13.88 c -9.54,2.31 -16.06,2.89 -19.57,1.73 -3.54,-1.15 -5.86,-4.08 -7.02,-8.81 -1.11,-4.66 -0.54,-8.36 1.7,-11.11 2.27,-2.74 7.05,-5.32 14.34,-7.69 l 81.37,-21.12 c 18.51,-5.04 30.61,-12.41 36.31,-22.11 5.71,-9.71 6.25,-24.06 1.64,-43.06 -2.73,-11.29 -6.25,-19.69 -10.56,-25.2 -4.3,-5.51 -10.29,-9.63 -17.98,-12.39 -5.04,-1.72 -11.45,-2.26 -19.24,-1.64 -7.79,0.61 -18.79,2.65 -32.99,6.08 l -66.17,16.05 c -27.15,6.59 -44.59,14.03 -52.28,22.34 -7.7,8.29 -9.53,20.75 -5.51,37.35 0.22,0.94 0.66,2.52 1.31,4.71 0.64,2.2 1.46,4.87 2.46,8.02"
         style="fill:#262b71;fill-opacity:1;fill-rule:nonzero;stroke:none"
         id="path3373"
         inkscape:connector-curvature="0" /><path
         d="m 1353.22,1602.38 -41.69,29.4 96.42,136.75 41.68,-29.4 -35.41,-50.24 85.58,-60.35 35.43,50.22 41.96,-29.59 -96.43,-136.74 -41.95,29.59 37.67,53.46 -85.58,60.35 -37.68,-53.45"
         style="fill:#262b71;fill-opacity:1;fill-rule:nonzero;stroke:none"
         id="path3375"
         inkscape:connector-curvature="0" /><path
         d="m 1568.67,1404.73 -31.93,39.94 130.72,104.44 31.92,-39.93 -130.71,-104.45"
         style="fill:#262b71;fill-opacity:1;fill-rule:nonzero;stroke:none"
         id="path3377"
         inkscape:connector-curvature="0" /><path
         d="m 1786.68,1268.21 -29.77,69.14 -38.92,-16.74 29.78,-69.16 c 2.7,-6.27 6.12,-9.99 10.26,-11.18 4.14,-1.2 10.13,-0.11 17.99,3.28 6.27,2.68 10.23,5.99 11.93,9.91 1.7,3.91 1.29,8.82 -1.27,14.75 z m 39,14.83 c 4.52,-10.47 7.6,-19.01 9.28,-25.68 1.68,-6.65 2.33,-12.63 1.93,-17.95 -0.72,-9.52 -4.33,-17.77 -10.84,-24.72 -6.5,-6.96 -16.79,-13.49 -30.91,-19.56 -21.06,-9.06 -37.44,-11.96 -49.16,-8.68 -11.74,3.27 -21.19,13.26 -28.4,29.97 l -37.78,87.74 -38.28,-16.49 -20.27,47.06 153.69,66.18 50.74,-117.87"
         style="fill:#262b71;fill-opacity:1;fill-rule:nonzero;stroke:none"
         id="path3379"
         inkscape:connector-curvature="0" /><path
         d="m 379.004,688.5 c 30.601,-1.512 66.941,1.781 100.351,18.109 104.5,-34.597 195.208,11.68 223.536,26.493 130.136,-61.09 250.761,-22.473 293.808,0 28.341,-14.813 199.661,-79.422 366.311,-27.75 65.72,-22.09 114.13,-30.543 149.59,-32.043 28.79,58.632 48.79,122.363 58.06,189.543 3.91,28.32 6.1,57.191 6.1,86.586 0,29.394 -2.19,58.272 -6.1,86.592 -38.28,277.14 -257.51,496.36 -534.64,534.64 -28.32,3.91 -57.192,6.09 -86.586,6.09 -29.395,0 -58.274,-2.18 -86.582,-6.09 -277.149,-38.28 -496.368,-257.5 -534.653,-534.64 -3.914,-28.32 -6.09,-57.198 -6.09,-86.592 0,-29.395 2.176,-58.278 6.09,-86.586 8.485,-61.411 25.895,-119.961 50.805,-174.352"
         style="fill:#ffffff;fill-opacity:1;fill-rule:nonzero;stroke:none"
         id="path3381"
         inkscape:connector-curvature="0" /><path
         d="m 996.699,733.102 c -43.047,-22.473 -163.672,-61.09 -293.808,0 -28.328,-14.813 -119.036,-61.09 -223.536,-26.493 -33.41,-16.328 -69.75,-19.621 -100.351,-18.109 87.519,-191.051 268.113,-330.488 483.848,-360.289 28.308,-3.922 57.187,-6.102 86.582,-6.102 29.394,0 58.266,2.18 86.586,6.102 209.97,29 386.6,161.891 476.58,345.098 -35.46,1.5 -83.87,9.953 -149.59,32.043 -166.65,-51.672 -337.97,12.937 -366.311,27.75"
         style="fill:#4ca5e0;fill-opacity:1;fill-rule:nonzero;stroke:none"
         id="path3383"
         inkscape:connector-curvature="0" /><path
         d="m 1392.03,789.559 c 0,-11.848 -64.21,-21.469 -143.43,-21.469 -79.21,0 -143.41,9.621 -143.41,21.469 0,11.851 64.2,21.461 143.41,21.461 79.22,0 143.43,-9.61 143.43,-21.461"
         style="fill:#262b71;fill-opacity:1;fill-rule:nonzero;stroke:none"
         id="path3385"
         inkscape:connector-curvature="0" /><path
         d="m 764.297,1202.9 16.172,13.26 16.152,-13.26 31.192,-25.53 c 52.441,-42.96 100.996,-77.64 145.292,-104.01 l 0,69.61 c -44.296,26.35 -92.824,60.94 -145.292,103.91 l -31.192,25.55 -16.152,13.24 -16.172,-13.24 -31.211,-25.55 c -52.637,-43.13 -101.309,-77.83 -145.731,-104.2 l 0,-69.6 c 44.403,26.4 93.114,61.16 145.731,104.29 l 31.211,25.53 z m 245.363,-193.01 c -63.683,32.3 -137.004,87.6 -219.902,165.88 l 0,2.18 c -83.039,-78.47 -156.477,-127.04 -220.262,-159.41 -27.488,-13.96 -55.836,-24.649 -84.945,-32.52 4.14,-8.399 8.609,-16.329 13.656,-23.489 25.531,6.094 50.664,13.157 75.293,21.418 65.262,21.861 137.32,54.501 215.875,97.381 l 0,-208.701 c 0,-172.719 95.391,-150.359 100.754,-150.359 103.125,0 108.406,198.652 156.841,271.062 -12.59,4.961 -25.06,10.328 -37.31,16.558 z m -285.734,264.42 c 2.48,2.01 4.902,3.92 7.363,5.95 0,0 29.316,24.24 48.75,25.71 12.5,0.94 24.609,-8.22 24.609,-8.22 l 21.368,-17.49 c 3.379,-2.79 6.679,-5.38 10.039,-8.1 l 0,41.91 c 0.039,0.53 0.168,1.05 0.168,1.59 0,0.44 -0.168,0.86 -0.168,1.3 l 0,20.13 c -3.36,2.72 -6.66,5.34 -10.039,8.12 l -4.493,3.69 -6.679,5.45 c -9.602,6.76 -21.574,10.97 -34.805,10.97 -13.105,0 -25.059,-4.05 -34.57,-10.73 -2.489,-1.77 -9.832,-6.69 -11.016,-6.79 l -3.164,-2.59 c -2.461,-2.04 -4.883,-3.94 -7.363,-5.95 l 0,-23.04 c 0,-0.21 -0.078,-0.39 -0.078,-0.56 0,-0.24 0.078,-0.46 0.078,-0.68 l 0,-40.67"
         style="fill:#262b71;fill-opacity:1;fill-rule:nonzero;stroke:none"
         id="path3387"
         inkscape:connector-curvature="0" /><path
         d="m 1144.68,829.578 c 0,-6.769 -5.5,-13.16 -12.24,-14.41 l 0,0 c -6.74,-1.258 -12.17,3.094 -12.17,9.871 0,65.57 0,98.352 0,163.91 0,6.785 5.43,13.441 12.17,14.691 l 0,0 c 6.74,1.25 12.24,-3.34 12.24,-10.14 0,-65.539 0,-98.34 0,-163.922"
         style="fill:#262b71;fill-opacity:1;fill-rule:nonzero;stroke:none"
         id="path3389"
         inkscape:connector-curvature="0" /><path
         d="m 1182.83,834.719 c 0,-6.789 -5.5,-12.821 -12.27,-13.668 l 0,0 c -6.8,-0.84 -12.32,3.859 -12.32,10.66 0,65.559 0,98.352 0,163.918 0,6.781 5.52,13.071 12.32,13.911 l 0,0 c 6.77,0.84 12.27,-4.1 12.27,-10.884 0,-65.547 0,-98.359 0,-163.937"
         style="fill:#262b71;fill-opacity:1;fill-rule:nonzero;stroke:none"
         id="path3391"
         inkscape:connector-curvature="0" /><path
         d="m 1221.22,837.52 c 0,-6.782 -5.54,-12.5 -12.34,-12.911 l 0,0 c -6.83,-0.418 -12.37,4.602 -12.37,11.391 0,65.555 0,98.328 0,163.906 0,6.764 5.54,12.754 12.37,13.174 l 0,0 c 6.8,0.42 12.34,-4.85 12.34,-11.63 0,-65.579 0,-98.36 0,-163.93"
         style="fill:#262b71;fill-opacity:1;fill-rule:nonzero;stroke:none"
         id="path3393"
         inkscape:connector-curvature="0" /><path
         d="m 1259.66,837.93 c 0,-6.77 -5.55,-12.149 -12.37,-12.149 l 0,0 c -6.83,0 -12.34,5.379 -12.34,12.149 0,65.57 0,98.363 0,163.93 0,6.8 5.51,12.39 12.34,12.39 l 0,0 c 6.82,0 12.37,-5.59 12.37,-12.39 -0.02,-65.567 -0.02,-98.36 0,-163.93"
         style="fill:#262b71;fill-opacity:1;fill-rule:nonzero;stroke:none"
         id="path3395"
         inkscape:connector-curvature="0" /><path
         d="m 1298.06,836 c 0,-6.789 -5.56,-11.809 -12.37,-11.391 l 0,0 c -6.8,0.411 -12.31,6.129 -12.31,12.911 0,65.57 0,98.363 0,163.93 0,6.78 5.51,12.05 12.31,11.63 l 0,0 c 6.81,-0.42 12.37,-6.41 12.37,-13.174 0,-65.558 0,-98.351 0,-163.906"
         style="fill:#262b71;fill-opacity:1;fill-rule:nonzero;stroke:none"
         id="path3397"
         inkscape:connector-curvature="0" /><path
         d="m 1336.32,831.73 c 0,-6.808 -5.49,-11.519 -12.29,-10.679 l 0,0 c -6.76,0.847 -12.29,6.898 -12.29,13.719 0,65.535 0,98.339 0,163.886 0,6.784 5.53,11.724 12.29,10.884 l 0,0 c 6.8,-0.84 12.29,-7.13 12.29,-13.911 0,-65.547 0,-98.359 0,-163.899"
         style="fill:#262b71;fill-opacity:1;fill-rule:nonzero;stroke:none"
         id="path3399"
         inkscape:connector-curvature="0" /><path
         d="m 1374.31,825.039 c 0,-6.777 -5.44,-11.141 -12.18,-9.871 l 0,0 c -6.72,1.25 -12.19,7.641 -12.19,14.41 0,65.582 0,98.383 0,163.922 0,6.8 5.47,11.41 12.19,10.14 l 0,0 c 6.74,-1.25 12.18,-7.906 12.18,-14.691 0,-65.558 0,-98.34 0,-163.91"
         style="fill:#262b71;fill-opacity:1;fill-rule:nonzero;stroke:none"
         id="path3401"
         inkscape:connector-curvature="0" /><path
         d="m 1392.69,1009.93 c 0,2.52 -0.63,4.67 -1.53,6.09 -4.71,15.71 -69.06,28.17 -147.97,28.17 -79.04,0 -143.44,-12.52 -147.99,-28.26 -0.87,-1.41 -1.47,-3.52 -1.47,-6 0,-3.61 1.18,-6.51 2.79,-7.4 1.18,-1.52 2.89,-2.987 5.12,-4.413 5.9,15.423 66.78,27.563 141.1,27.563 75.02,0 136.38,-12.39 141.23,-28.012 2.58,1.543 4.49,3.152 5.77,4.812 1.69,0.79 2.95,3.74 2.95,7.45"
         style="fill:#262b71;fill-opacity:1;fill-rule:nonzero;stroke:none"
         id="path3403"
         inkscape:connector-curvature="0" /><path
         d="m 1236.48,1093.85 -264.125,0 0,-9.99 264.125,0 0,-37.93 7.97,0 0,47.92 -7.97,0"
         style="fill:#262b71;fill-opacity:1;fill-rule:nonzero;stroke:none"
         id="path3405"
         inkscape:connector-curvature="0" /><path
         d="m 328.199,1036.03 c 38.285,277.14 257.504,496.36 534.653,534.64 28.308,3.91 57.187,6.09 86.582,6.09 29.394,0 58.266,-2.18 86.586,-6.09 277.13,-38.28 496.36,-257.5 534.64,-534.64 3.91,-28.32 6.1,-57.198 6.1,-86.592 0,-29.395 -2.19,-58.266 -6.1,-86.586 -9.27,-67.18 -29.27,-130.911 -58.06,-189.543 -89.98,-183.207 -266.61,-316.098 -476.58,-345.098 -28.32,-3.922 -57.192,-6.102 -86.586,-6.102 -29.395,0 -58.274,2.18 -86.582,6.102 -215.735,29.801 -396.329,169.238 -483.848,360.289 -24.91,54.391 -42.32,112.941 -50.805,174.352 -3.914,28.308 -6.09,57.191 -6.09,86.586 0,29.394 2.176,58.272 6.09,86.592 z m 1330.161,-23.14 c -30.27,342.49 -302.99,615.2 -645.47,645.47 l -63.456,240.51 -63.457,-240.51 C 543.48,1628.09 270.785,1355.38 240.508,1012.89 L 0,949.438 240.508,885.988 C 270.785,543.488 543.48,270.781 885.977,240.512 L 949.434,0 1012.89,240.512 c 342.48,30.269 615.2,302.976 645.47,645.476 l 240.51,63.45 -240.51,63.452"
         style="fill:#262b71;fill-opacity:1;fill-rule:nonzero;stroke:none"
         id="path3407"
         inkscape:connector-curvature="0" /></g></g></svg>