<?xml version="1.0" encoding="UTF-8" standalone="no"?>
<!-- Created with Inkscape (http://www.inkscape.org/) -->

<svg
   xmlns:dc="http://purl.org/dc/elements/1.1/"
   xmlns:cc="http://creativecommons.org/ns#"
   xmlns:rdf="http://www.w3.org/1999/02/22-rdf-syntax-ns#"
   xmlns:svg="http://www.w3.org/2000/svg"
   xmlns="http://www.w3.org/2000/svg"
   xmlns:sodipodi="http://sodipodi.sourceforge.net/DTD/sodipodi-0.dtd"
   xmlns:inkscape="http://www.inkscape.org/namespaces/inkscape"
   id="svg11692"
   version="1.1"
   inkscape:version="0.91+devel+osxmenu r12896"
   xml:space="preserve"
   width="802.37378"
   height="802.39722"
   viewBox="0 0 802.37378 802.39721"
   sodipodi:docname="scripps_logo.svg"><metadata
     id="metadata11698"><rdf:RDF><cc:Work
         rdf:about=""><dc:format>image/svg+xml</dc:format><dc:type
           rdf:resource="http://purl.org/dc/dcmitype/StillImage" /><dc:title></dc:title></cc:Work></rdf:RDF></metadata><defs
     id="defs11696"><clipPath
       clipPathUnits="userSpaceOnUse"
       id="clipPath12212"><path
         d="m 1,0 16.98286,-0.78516 0,1.57032 L 1,0 Z"
         id="path12214"
         inkscape:connector-curvature="0" /></clipPath><clipPath
       clipPathUnits="userSpaceOnUse"
       id="clipPath12222"><path
         d="m 1,0 16.98286,-0.78516 0,1.57032 L 1,0 Z"
         id="path12224"
         inkscape:connector-curvature="0" /></clipPath><clipPath
       clipPathUnits="userSpaceOnUse"
       id="clipPath12232"><path
         d="m 1,0 16.98286,-0.78516 0,1.57032 L 1,0 Z"
         id="path12234"
         inkscape:connector-curvature="0" /></clipPath><clipPath
       clipPathUnits="userSpaceOnUse"
       id="clipPath12242"><path
         d="m 1,0 16.98286,-0.78516 0,1.57032 L 1,0 Z"
         id="path12244"
         inkscape:connector-curvature="0" /></clipPath><clipPath
       clipPathUnits="userSpaceOnUse"
       id="clipPath12252"><path
         d="m 1,0 16.98286,-0.78516 0,1.57032 L 1,0 Z"
         id="path12254"
         inkscape:connector-curvature="0" /></clipPath><clipPath
       clipPathUnits="userSpaceOnUse"
       id="clipPath12262"><path
         d="m 1,0 16.98286,-0.78516 0,1.57032 L 1,0 Z"
         id="path12264"
         inkscape:connector-curvature="0" /></clipPath><clipPath
       clipPathUnits="userSpaceOnUse"
       id="clipPath12272"><path
         d="m 1,0 16.98286,-0.78516 0,1.57032 L 1,0 Z"
         id="path12274"
         inkscape:connector-curvature="0" /></clipPath><clipPath
       clipPathUnits="userSpaceOnUse"
       id="clipPath12282"><path
         d="m 1,0 16.98286,-0.78516 0,1.57032 L 1,0 Z"
         id="path12284"
         inkscape:connector-curvature="0" /></clipPath><clipPath
       clipPathUnits="userSpaceOnUse"
       id="clipPath12292"><path
         d="m 1,0 16.98286,-0.78516 0,1.57032 L 1,0 Z"
         id="path12294"
         inkscape:connector-curvature="0" /></clipPath><clipPath
       clipPathUnits="userSpaceOnUse"
       id="clipPath12302"><path
         d="m 1,0 16.98286,-0.78516 0,1.57032 L 1,0 Z"
         id="path12304"
         inkscape:connector-curvature="0" /></clipPath><clipPath
       clipPathUnits="userSpaceOnUse"
       id="clipPath12312"><path
         d="m 1,0 16.98286,-0.78516 0,1.57032 L 1,0 Z"
         id="path12314"
         inkscape:connector-curvature="0" /></clipPath><clipPath
       clipPathUnits="userSpaceOnUse"
       id="clipPath12322"><path
         d="m 1,0 16.98286,-0.78516 0,1.57032 L 1,0 Z"
         id="path12324"
         inkscape:connector-curvature="0" /></clipPath><clipPath
       clipPathUnits="userSpaceOnUse"
       id="clipPath12332"><path
         d="m 1,0 16.98286,-0.78516 0,1.57032 L 1,0 Z"
         id="path12334"
         inkscape:connector-curvature="0" /></clipPath><clipPath
       clipPathUnits="userSpaceOnUse"
       id="clipPath12342"><path
         d="m 1,0 16.98286,-0.78516 0,1.57032 L 1,0 Z"
         id="path12344"
         inkscape:connector-curvature="0" /></clipPath><clipPath
       clipPathUnits="userSpaceOnUse"
       id="clipPath12352"><path
         d="m 1,0 16.98286,-0.78516 0,1.57032 L 1,0 Z"
         id="path12354"
         inkscape:connector-curvature="0" /></clipPath><clipPath
       clipPathUnits="userSpaceOnUse"
       id="clipPath12362"><path
         d="m 1,0 16.98286,-0.78516 0,1.57032 L 1,0 Z"
         id="path12364"
         inkscape:connector-curvature="0" /></clipPath><clipPath
       clipPathUnits="userSpaceOnUse"
       id="clipPath12372"><path
         d="m 1,0 16.98286,-0.78516 0,1.57032 L 1,0 Z"
         id="path12374"
         inkscape:connector-curvature="0" /></clipPath><clipPath
       clipPathUnits="userSpaceOnUse"
       id="clipPath12382"><path
         d="m 1,0 16.98286,-0.78516 0,1.57032 L 1,0 Z"
         id="path12384"
         inkscape:connector-curvature="0" /></clipPath><clipPath
       clipPathUnits="userSpaceOnUse"
       id="clipPath12392"><path
         d="m 1,0 16.98286,-0.78516 0,1.57032 L 1,0 Z"
         id="path12394"
         inkscape:connector-curvature="0" /></clipPath><clipPath
       clipPathUnits="userSpaceOnUse"
       id="clipPath12402"><path
         d="m 1,0 16.98286,-0.78516 0,1.57032 L 1,0 Z"
         id="path12404"
         inkscape:connector-curvature="0" /></clipPath><clipPath
       clipPathUnits="userSpaceOnUse"
       id="clipPath12412"><path
         d="m 1,0 16.98286,-0.78516 0,1.57032 L 1,0 Z"
         id="path12414"
         inkscape:connector-curvature="0" /></clipPath><clipPath
       clipPathUnits="userSpaceOnUse"
       id="clipPath12422"><path
         d="m 1,0 16.98286,-0.78516 0,1.57032 L 1,0 Z"
         id="path12424"
         inkscape:connector-curvature="0" /></clipPath><clipPath
       clipPathUnits="userSpaceOnUse"
       id="clipPath12432"><path
         d="m 1,0 16.98286,-0.78516 0,1.57032 L 1,0 Z"
         id="path12434"
         inkscape:connector-curvature="0" /></clipPath><clipPath
       clipPathUnits="userSpaceOnUse"
       id="clipPath12442"><path
         d="m 1,0 16.98286,-0.78516 0,1.57032 L 1,0 Z"
         id="path12444"
         inkscape:connector-curvature="0" /></clipPath><clipPath
       clipPathUnits="userSpaceOnUse"
       id="clipPath12452"><path
         d="m 1,0 16.98286,-0.78516 0,1.57032 L 1,0 Z"
         id="path12454"
         inkscape:connector-curvature="0" /></clipPath><clipPath
       clipPathUnits="userSpaceOnUse"
       id="clipPath12462"><path
         d="m 1,0 16.98286,-0.78516 0,1.57032 L 1,0 Z"
         id="path12464"
         inkscape:connector-curvature="0" /></clipPath><clipPath
       clipPathUnits="userSpaceOnUse"
       id="clipPath12472"><path
         d="m 1,0 16.98286,-0.78516 0,1.57032 L 1,0 Z"
         id="path12474"
         inkscape:connector-curvature="0" /></clipPath><clipPath
       clipPathUnits="userSpaceOnUse"
       id="clipPath12482"><path
         d="m 1,0 16.98286,-0.78516 0,1.57032 L 1,0 Z"
         id="path12484"
         inkscape:connector-curvature="0" /></clipPath><clipPath
       clipPathUnits="userSpaceOnUse"
       id="clipPath12492"><path
         d="m 1,0 16.98286,-0.78516 0,1.57032 L 1,0 Z"
         id="path12494"
         inkscape:connector-curvature="0" /></clipPath><clipPath
       clipPathUnits="userSpaceOnUse"
       id="clipPath12502"><path
         d="m 1,0 16.98286,-0.78516 0,1.57032 L 1,0 Z"
         id="path12504"
         inkscape:connector-curvature="0" /></clipPath><clipPath
       clipPathUnits="userSpaceOnUse"
       id="clipPath12512"><path
         d="m 1,0 16.98286,-0.78516 0,1.57032 L 1,0 Z"
         id="path12514"
         inkscape:connector-curvature="0" /></clipPath><clipPath
       clipPathUnits="userSpaceOnUse"
       id="clipPath12522"><path
         d="m 1,0 16.98286,-0.78516 0,1.57032 L 1,0 Z"
         id="path12524"
         inkscape:connector-curvature="0" /></clipPath><clipPath
       clipPathUnits="userSpaceOnUse"
       id="clipPath12532"><path
         d="m 1,0 16.98286,-0.78516 0,1.57032 L 1,0 Z"
         id="path12534"
         inkscape:connector-curvature="0" /></clipPath><clipPath
       clipPathUnits="userSpaceOnUse"
       id="clipPath12542"><path
         d="m 1,0 16.98286,-0.78516 0,1.57032 L 1,0 Z"
         id="path12544"
         inkscape:connector-curvature="0" /></clipPath><clipPath
       clipPathUnits="userSpaceOnUse"
       id="clipPath12552"><path
         d="m 1,0 16.98286,-0.78516 0,1.57032 L 1,0 Z"
         id="path12554"
         inkscape:connector-curvature="0" /></clipPath><clipPath
       clipPathUnits="userSpaceOnUse"
       id="clipPath12562"><path
         d="m 1,0 16.98286,-0.78516 0,1.57032 L 1,0 Z"
         id="path12564"
         inkscape:connector-curvature="0" /></clipPath><clipPath
       clipPathUnits="userSpaceOnUse"
       id="clipPath12578"><path
         d="m 1,0 16.98286,-0.78516 0,1.57032 L 1,0 Z"
         id="path12580"
         inkscape:connector-curvature="0" /></clipPath><clipPath
       clipPathUnits="userSpaceOnUse"
       id="clipPath12588"><path
         d="m 1,0 16.98286,-0.78516 0,1.57032 L 1,0 Z"
         id="path12590"
         inkscape:connector-curvature="0" /></clipPath><clipPath
       clipPathUnits="userSpaceOnUse"
       id="clipPath12598"><path
         d="m 1,0 16.98286,-0.78516 0,1.57032 L 1,0 Z"
         id="path12600"
         inkscape:connector-curvature="0" /></clipPath><clipPath
       clipPathUnits="userSpaceOnUse"
       id="clipPath12608"><path
         d="m 1,0 16.98286,-0.78516 0,1.57032 L 1,0 Z"
         id="path12610"
         inkscape:connector-curvature="0" /></clipPath><clipPath
       clipPathUnits="userSpaceOnUse"
       id="clipPath12618"><path
         d="m 1,0 16.98286,-0.78516 0,1.57032 L 1,0 Z"
         id="path12620"
         inkscape:connector-curvature="0" /></clipPath><clipPath
       clipPathUnits="userSpaceOnUse"
       id="clipPath12628"><path
         d="m 1,0 16.98286,-0.78516 0,1.57032 L 1,0 Z"
         id="path12630"
         inkscape:connector-curvature="0" /></clipPath><clipPath
       clipPathUnits="userSpaceOnUse"
       id="clipPath12638"><path
         d="m 1,0 16.98286,-0.78516 0,1.57032 L 1,0 Z"
         id="path12640"
         inkscape:connector-curvature="0" /></clipPath><clipPath
       clipPathUnits="userSpaceOnUse"
       id="clipPath12648"><path
         d="m 1,0 16.98286,-0.78516 0,1.57032 L 1,0 Z"
         id="path12650"
         inkscape:connector-curvature="0" /></clipPath><clipPath
       clipPathUnits="userSpaceOnUse"
       id="clipPath12658"><path
         d="m 1,0 16.98286,-0.78516 0,1.57032 L 1,0 Z"
         id="path12660"
         inkscape:connector-curvature="0" /></clipPath><clipPath
       clipPathUnits="userSpaceOnUse"
       id="clipPath12668"><path
         d="m 1,0 16.98286,-0.78516 0,1.57032 L 1,0 Z"
         id="path12670"
         inkscape:connector-curvature="0" /></clipPath><clipPath
       clipPathUnits="userSpaceOnUse"
       id="clipPath12678"><path
         d="m 1,0 16.98286,-0.78516 0,1.57032 L 1,0 Z"
         id="path12680"
         inkscape:connector-curvature="0" /></clipPath><clipPath
       clipPathUnits="userSpaceOnUse"
       id="clipPath12688"><path
         d="m 1,0 16.98286,-0.78516 0,1.57032 L 1,0 Z"
         id="path12690"
         inkscape:connector-curvature="0" /></clipPath><clipPath
       clipPathUnits="userSpaceOnUse"
       id="clipPath12698"><path
         d="m 1,0 16.98286,-0.78516 0,1.57032 L 1,0 Z"
         id="path12700"
         inkscape:connector-curvature="0" /></clipPath><clipPath
       clipPathUnits="userSpaceOnUse"
       id="clipPath12708"><path
         d="m 1,0 16.98286,-0.78516 0,1.57032 L 1,0 Z"
         id="path12710"
         inkscape:connector-curvature="0" /></clipPath><clipPath
       clipPathUnits="userSpaceOnUse"
       id="clipPath12718"><path
         d="m 1,0 16.98286,-0.78516 0,1.57032 L 1,0 Z"
         id="path12720"
         inkscape:connector-curvature="0" /></clipPath><clipPath
       clipPathUnits="userSpaceOnUse"
       id="clipPath12728"><path
         d="m 1,0 16.98286,-0.78516 0,1.57032 L 1,0 Z"
         id="path12730"
         inkscape:connector-curvature="0" /></clipPath><clipPath
       clipPathUnits="userSpaceOnUse"
       id="clipPath12738"><path
         d="m 1,0 16.98286,-0.78516 0,1.57032 L 1,0 Z"
         id="path12740"
         inkscape:connector-curvature="0" /></clipPath><clipPath
       clipPathUnits="userSpaceOnUse"
       id="clipPath12748"><path
         d="m 1,0 16.98286,-0.78516 0,1.57032 L 1,0 Z"
         id="path12750"
         inkscape:connector-curvature="0" /></clipPath><clipPath
       clipPathUnits="userSpaceOnUse"
       id="clipPath12758"><path
         d="m 1,0 16.98286,-0.78516 0,1.57032 L 1,0 Z"
         id="path12760"
         inkscape:connector-curvature="0" /></clipPath><clipPath
       clipPathUnits="userSpaceOnUse"
       id="clipPath12768"><path
         d="m 1,0 16.98286,-0.78516 0,1.57032 L 1,0 Z"
         id="path12770"
         inkscape:connector-curvature="0" /></clipPath><clipPath
       clipPathUnits="userSpaceOnUse"
       id="clipPath12778"><path
         d="m 1,0 16.98286,-0.78516 0,1.57032 L 1,0 Z"
         id="path12780"
         inkscape:connector-curvature="0" /></clipPath><clipPath
       clipPathUnits="userSpaceOnUse"
       id="clipPath12788"><path
         d="m 1,0 16.98286,-0.78516 0,1.57032 L 1,0 Z"
         id="path12790"
         inkscape:connector-curvature="0" /></clipPath><clipPath
       clipPathUnits="userSpaceOnUse"
       id="clipPath12798"><path
         d="m 1,0 16.98286,-0.78516 0,1.57032 L 1,0 Z"
         id="path12800"
         inkscape:connector-curvature="0" /></clipPath><clipPath
       clipPathUnits="userSpaceOnUse"
       id="clipPath12808"><path
         d="m 1,0 16.98286,-0.78516 0,1.57032 L 1,0 Z"
         id="path12810"
         inkscape:connector-curvature="0" /></clipPath><clipPath
       clipPathUnits="userSpaceOnUse"
       id="clipPath12818"><path
         d="m 1,0 16.98286,-0.78516 0,1.57032 L 1,0 Z"
         id="path12820"
         inkscape:connector-curvature="0" /></clipPath><clipPath
       clipPathUnits="userSpaceOnUse"
       id="clipPath12828"><path
         d="m 1,0 16.98286,-0.78516 0,1.57032 L 1,0 Z"
         id="path12830"
         inkscape:connector-curvature="0" /></clipPath><clipPath
       clipPathUnits="userSpaceOnUse"
       id="clipPath12838"><path
         d="m 1,0 16.98286,-0.78516 0,1.57032 L 1,0 Z"
         id="path12840"
         inkscape:connector-curvature="0" /></clipPath><clipPath
       clipPathUnits="userSpaceOnUse"
       id="clipPath12848"><path
         d="m 1,0 16.98286,-0.78516 0,1.57032 L 1,0 Z"
         id="path12850"
         inkscape:connector-curvature="0" /></clipPath><clipPath
       clipPathUnits="userSpaceOnUse"
       id="clipPath12858"><path
         d="m 1,0 16.98286,-0.78516 0,1.57032 L 1,0 Z"
         id="path12860"
         inkscape:connector-curvature="0" /></clipPath><clipPath
       clipPathUnits="userSpaceOnUse"
       id="clipPath12868"><path
         d="m 1,0 16.98286,-0.78516 0,1.57032 L 1,0 Z"
         id="path12870"
         inkscape:connector-curvature="0" /></clipPath><clipPath
       clipPathUnits="userSpaceOnUse"
       id="clipPath12878"><path
         d="m 1,0 16.98286,-0.78516 0,1.57032 L 1,0 Z"
         id="path12880"
         inkscape:connector-curvature="0" /></clipPath><clipPath
       clipPathUnits="userSpaceOnUse"
       id="clipPath12888"><path
         d="m 1,0 16.98286,-0.78516 0,1.57032 L 1,0 Z"
         id="path12890"
         inkscape:connector-curvature="0" /></clipPath><clipPath
       clipPathUnits="userSpaceOnUse"
       id="clipPath12898"><path
         d="m 1,0 16.98286,-0.78516 0,1.57032 L 1,0 Z"
         id="path12900"
         inkscape:connector-curvature="0" /></clipPath><clipPath
       clipPathUnits="userSpaceOnUse"
       id="clipPath12908"><path
         d="m 1,0 16.98286,-0.78516 0,1.57032 L 1,0 Z"
         id="path12910"
         inkscape:connector-curvature="0" /></clipPath><clipPath
       clipPathUnits="userSpaceOnUse"
       id="clipPath12918"><path
         d="m 1,0 16.98286,-0.78516 0,1.57032 L 1,0 Z"
         id="path12920"
         inkscape:connector-curvature="0" /></clipPath><clipPath
       clipPathUnits="userSpaceOnUse"
       id="clipPath12928"><path
         d="m 1,0 16.98286,-0.78516 0,1.57032 L 1,0 Z"
         id="path12930"
         inkscape:connector-curvature="0" /></clipPath></defs><sodipodi:namedview
     pagecolor="#ffffff"
     bordercolor="#666666"
     borderopacity="1"
     objecttolerance="10"
     gridtolerance="10"
     guidetolerance="10"
     inkscape:pageopacity="0"
     inkscape:pageshadow="2"
     inkscape:window-width="1778"
     inkscape:window-height="1013"
     id="namedview11694"
     showgrid="false"
     fit-margin-top="0"
     fit-margin-left="0"
     fit-margin-right="0"
     fit-margin-bottom="0"
     inkscape:zoom="1"
     inkscape:cx="401.30506"
     inkscape:cy="398.01146"
     inkscape:window-x="0"
     inkscape:window-y="23"
     inkscape:window-maximized="0"
     inkscape:current-layer="g11700" /><g
     id="g11700"
     inkscape:groupmode="layer"
     inkscape:label="scripps_logo_print"
     transform="matrix(1.3333333,0,0,-1.3333333,-59.361592,865.05245)"><g
       id="g11702"
       transform="scale(1,-1)"><path
         d="m 138.56299,-331.20117 c 16.82226,0 14.06445,-6.69531 29.46972,-6.69531 15.41211,0 12.66651,6.69531 29.48975,6.69531 16.80908,0 14.0835,-6.69531 29.47363,-6.69531 15.41797,0 12.68604,6.69531 29.4961,6.69531 16.82031,0 14.07177,-6.69531 29.48291,-6.69531 15.40039,0 12.65429,6.69531 29.47412,6.69531 16.82373,0 14.07519,-6.69531 29.48437,-6.69531 15.40625,0 12.65918,6.69531 29.49121,6.69531 16.81641,0 14.07911,-6.69531 29.46875,-6.69531 15.41114,0 12.69239,6.69531 29.47852,6.69531 16.82422,0 14.08203,-6.69531 29.49121,-6.69531 15.40039,0 12.66992,6.69531 29.48535,6.69531 16.83496,0 14.10059,-6.69531 29.48633,-6.69531 15.40918,0 12.68164,6.69531 29.48438,6.69531 16.83398,0 14.2705,-6.69531 29.6748,-6.69531 2.9707,0 5.27539,0.24609 7.17871,0.64257 0.13867,-3.42382 0.25977,-6.85742 0.25977,-10.33349 0,-136.85694 -109.01758,-247.81983 -243.4834,-247.81983 -134.46973,0 -243.47949,110.96289 -243.47949,247.81983 0,3.48779 0.12109,6.93896 0.25732,10.38818 1.93506,-0.42773 4.26856,-0.69726 7.33984,-0.69726 15.40967,0 12.6753,6.69531 29.4961,6.69531 z"
         style="fill:#007eb2;fill-opacity:1;fill-rule:nonzero;stroke:none"
         id="path11704"
         inkscape:connector-curvature="0" /><path
         d="m 580.99414,-337.89648 c -15.4043,0 -12.84082,6.69531 -29.6748,6.69531 -16.80274,0 -14.0752,-6.69531 -29.48438,-6.69531 -15.38574,0 -12.65137,6.69531 -29.48633,6.69531 -16.81543,0 -14.08496,-6.69531 -29.48535,-6.69531 -15.40918,0 -12.66699,6.69531 -29.49121,6.69531 -16.78613,0 -14.06738,-6.69531 -29.47852,-6.69531 -15.38964,0 -12.65234,6.69531 -29.46875,6.69531 -16.83203,0 -14.08496,-6.69531 -29.49121,-6.69531 -15.40918,0 -12.66064,6.69531 -29.48437,6.69531 -16.81983,0 -14.07373,-6.69531 -29.47412,-6.69531 -15.41114,0 -12.6626,6.69531 -29.48291,6.69531 -16.81006,0 -14.07813,-6.69531 -29.4961,-6.69531 -15.39013,0 -12.66455,6.69531 -29.47363,6.69531 -16.82324,0 -14.07764,-6.69531 -29.48975,-6.69531 -15.40527,0 -12.64746,6.69531 -29.46972,6.69531 -16.8208,0 -14.08643,-6.69531 -29.4961,-6.69531 -3.07128,0 -5.40478,0.26953 -7.33984,0.69726 5.35059,132.06152 112.17139,237.45996 243.22217,237.45996 131.06543,0 237.89746,-105.42676 243.22363,-237.51465 -1.90332,-0.39648 -4.20801,-0.64257 -7.17871,-0.64257 z"
         style="fill:#176fc1;fill-opacity:1;fill-rule:nonzero;stroke:none"
         id="path11706"
         inkscape:connector-curvature="0" /><path
         d="m 580.99414,-337.89648 c -15.4043,0 -12.84082,6.69531 -29.6748,6.69531 -16.80274,0 -14.0752,-6.69531 -29.48438,-6.69531 -15.38574,0 -12.65137,6.69531 -29.48633,6.69531 -16.81543,0 -14.08496,-6.69531 -29.48535,-6.69531 -15.40918,0 -12.66699,6.69531 -29.49121,6.69531 -16.78613,0 -14.06738,-6.69531 -29.47852,-6.69531 -15.38964,0 -12.65234,6.69531 -29.46875,6.69531 -16.83203,0 -14.08496,-6.69531 -29.49121,-6.69531 -15.40918,0 -12.66064,6.69531 -29.48437,6.69531 -16.81983,0 -14.07373,-6.69531 -29.47412,-6.69531 -15.41114,0 -12.6626,6.69531 -29.48291,6.69531 -16.81006,0 -14.07813,-6.69531 -29.4961,-6.69531 -15.39013,0 -12.66455,6.69531 -29.47363,6.69531 -16.82324,0 -14.07764,-6.69531 -29.48975,-6.69531 -15.40527,0 -12.64746,6.69531 -29.46972,6.69531 -16.8208,0 -14.08643,-6.69531 -29.4961,-6.69531 -3.07128,0 -5.40478,0.26953 -7.33984,0.69726 5.35059,132.06152 112.17139,237.45996 243.22217,237.45996 131.06543,0 237.89746,-105.42676 243.22363,-237.51465 -1.90332,-0.39648 -4.20801,-0.64257 -7.17871,-0.64257 z"
         style="fill:none;stroke:#ffffff;stroke-width:1.44901001;stroke-linecap:butt;stroke-linejoin:miter;stroke-miterlimit:4;stroke-dasharray:none;stroke-opacity:1"
         id="path11708"
         inkscape:connector-curvature="0" /><path
         d="m 585.30859,-303.04199 c -1.26562,-0.14746 -2.70117,-0.2168 -4.31445,-0.2168 -15.4043,0 -12.84082,6.70117 -29.6748,6.70117 -16.80274,0 -14.0752,-6.70117 -29.48438,-6.70117 -15.38574,0 -12.65137,6.70117 -29.48633,6.70117 -16.81543,0 -14.08496,-6.70117 -29.48535,-6.70117 -15.40918,0 -12.66699,6.70117 -29.49121,6.70117 -16.78613,0 -14.06738,-6.70117 -29.47852,-6.70117 -15.38964,0 -12.65234,6.70117 -29.46875,6.70117 -16.83203,0 -14.08496,-6.70117 -29.49121,-6.70117 -15.40918,0 -12.66064,6.70117 -29.48437,6.70117 -16.81983,0 -14.07373,-6.70117 -29.47412,-6.70117 -15.41114,0 -12.6626,6.70117 -29.48291,6.70117 -16.81006,0 -14.07813,-6.70117 -29.4961,-6.70117 -15.39013,0 -12.66455,6.70117 -29.47363,6.70117 -16.82324,0 -14.07764,-6.70117 -29.48975,-6.70117 -15.40527,0 -12.64746,6.70117 -29.46972,6.70117 -16.8208,0 -14.08643,-6.70117 -29.4961,-6.70117 -1.55419,0 -2.94238,0.0693 -4.17334,0.19238"
         style="fill:none;stroke:#ffffff;stroke-width:1.44809997;stroke-linecap:butt;stroke-linejoin:miter;stroke-miterlimit:4;stroke-dasharray:none;stroke-opacity:1"
         id="path11710"
         inkscape:connector-curvature="0" /><path
         d="m 575.63184,-268.26758 c -9.70118,1.34473 -9.75098,6.35742 -24.3125,6.35742 -16.80274,0 -14.0752,-6.68945 -29.48438,-6.68945 -15.38574,0 -12.65137,6.68945 -29.48633,6.68945 -16.81543,0 -14.08496,-6.68945 -29.48535,-6.68945 -15.40918,0 -12.66699,6.68945 -29.49121,6.68945 -16.78613,0 -14.06738,-6.68945 -29.47852,-6.68945 -15.38964,0 -12.65234,6.68945 -29.46875,6.68945 -16.83203,0 -14.08496,-6.68945 -29.49121,-6.68945 -15.40918,0 -12.66064,6.68945 -29.48437,6.68945 -16.81983,0 -14.07373,-6.68945 -29.47412,-6.68945 -15.41114,0 -12.6626,6.68945 -29.48291,6.68945 -16.81006,0 -14.07813,-6.68945 -29.4961,-6.68945 -15.39013,0 -12.66455,6.68945 -29.47363,6.68945 -16.82324,0 -14.07764,-6.68945 -29.48975,-6.68945 -15.40527,0 -12.64746,6.68945 -29.46972,6.68945 -14.73535,0 -14.4707,-5.12988 -24.49219,-6.41406"
         style="fill:none;stroke:#ffffff;stroke-width:1.44809997;stroke-linecap:butt;stroke-linejoin:miter;stroke-miterlimit:4;stroke-dasharray:none;stroke-opacity:1"
         id="path11712"
         inkscape:connector-curvature="0" /><path
         d="m 556.78906,-227.53125 c -1.57519,0.16406 -3.38379,0.26367 -5.46972,0.26367 -16.80274,0 -14.0752,-6.68359 -29.48438,-6.68359 -15.38574,0 -12.65137,6.68359 -29.48633,6.68359 -16.81543,0 -14.08496,-6.68359 -29.48535,-6.68359 -15.40918,0 -12.66699,6.68359 -29.49121,6.68359 -16.78613,0 -14.06738,-6.68359 -29.47852,-6.68359 -15.38964,0 -12.65234,6.68359 -29.46875,6.68359 -16.83203,0 -14.08496,-6.68359 -29.49121,-6.68359 -15.40918,0 -12.66064,6.68359 -29.48437,6.68359 -16.81983,0 -14.07373,-6.68359 -29.47412,-6.68359 -15.41114,0 -12.6626,6.68359 -29.48291,6.68359 -16.81006,0 -14.07813,-6.68359 -29.4961,-6.68359 -15.39013,0 -12.66455,6.68359 -29.47363,6.68359 -16.82324,0 -14.07764,-6.68359 -29.48975,-6.68359 -15.40527,0 -12.64746,6.68359 -29.46972,6.68359 -2.1001,0 -3.90576,-0.0996 -5.45801,-0.26367"
         style="fill:none;stroke:#ffffff;stroke-width:1.44809997;stroke-linecap:butt;stroke-linejoin:miter;stroke-miterlimit:4;stroke-dasharray:none;stroke-opacity:1"
         id="path11714"
         inkscape:connector-curvature="0" /><path
         d="m 535.33301,-196.3291 c -3.10352,-1.54883 -6.32813,-2.97168 -13.49805,-2.97168 -15.38574,0 -12.65137,6.68164 -29.48633,6.68164 -16.81543,0 -14.08496,-6.68164 -29.48535,-6.68164 -15.40918,0 -12.66699,6.68164 -29.49121,6.68164 -16.78613,0 -14.06738,-6.68164 -29.47852,-6.68164 -15.38964,0 -12.65234,6.68164 -29.46875,6.68164 -16.83203,0 -14.08496,-6.68164 -29.49121,-6.68164 -15.40918,0 -12.66064,6.68164 -29.48437,6.68164 -16.81983,0 -14.07373,-6.68164 -29.47412,-6.68164 -15.41114,0 -12.6626,6.68164 -29.48291,6.68164 -16.81006,0 -14.07813,-6.68164 -29.4961,-6.68164 -15.39013,0 -12.66455,6.68164 -29.47363,6.68164 -16.82324,0 -14.07764,-6.68164 -29.48975,-6.68164 -6.94921,0 -10.20898,1.35351 -13.21191,2.84961"
         style="fill:none;stroke:#ffffff;stroke-width:1.44809997;stroke-linecap:butt;stroke-linejoin:miter;stroke-miterlimit:4;stroke-dasharray:none;stroke-opacity:1"
         id="path11716"
         inkscape:connector-curvature="0" /><path
         d="m 497.03418,-158.16895 c -1.36426,0.10938 -2.92383,0.19727 -4.68555,0.19727 -16.81543,0 -14.08496,-6.6875 -29.48535,-6.6875 -15.40918,0 -12.66699,6.6875 -29.49121,6.6875 -16.78613,0 -14.06738,-6.6875 -29.47852,-6.6875 -15.38964,0 -12.65234,6.6875 -29.46875,6.6875 -16.83203,0 -14.08496,-6.6875 -29.49121,-6.6875 -15.40918,0 -12.66064,6.6875 -29.48437,6.6875 -16.81983,0 -14.07373,-6.6875 -29.47412,-6.6875 -15.41114,0 -12.6626,6.6875 -29.48291,6.6875 -16.81006,0 -14.07813,-6.6875 -29.4961,-6.6875 -15.39013,0 -12.66455,6.6875 -29.47363,6.6875 -1.61377,0 -3.05225,-0.0635 -4.34668,-0.16895"
         style="fill:none;stroke:#ffffff;stroke-width:1.44809997;stroke-linecap:butt;stroke-linejoin:miter;stroke-miterlimit:4;stroke-dasharray:none;stroke-opacity:1"
         id="path11718"
         inkscape:connector-curvature="0" /><path
         d="m 438.06348,-123.52051 c -1.38477,0.11035 -2.91602,0.18653 -4.69141,0.18653 -16.78613,0 -14.06738,-6.6836 -29.47852,-6.6836 -15.38964,0 -12.65234,6.6836 -29.46875,6.6836 -16.83203,0 -14.08496,-6.6836 -29.49121,-6.6836 -15.40918,0 -12.66064,6.6836 -29.48437,6.6836 -16.81983,0 -14.07373,-6.6836 -29.47412,-6.6836 -15.41114,0 -12.6626,6.6836 -29.48291,6.6836 -1.19287,0 -2.31592,-0.0186 -3.33301,-0.0947"
         style="fill:none;stroke:#ffffff;stroke-width:1.44809997;stroke-linecap:butt;stroke-linejoin:miter;stroke-miterlimit:4;stroke-dasharray:none;stroke-opacity:1"
         id="path11720"
         inkscape:connector-curvature="0" /><path
         d="m 420.375,-420.2334 c 0,0 2.46094,0 2.46094,0 0,0 -0.085,-0.14892 -0.085,-0.14892 0,0 -2.45899,0 -2.45899,0 0,0 0.083,0.14892 0.083,0.14892 z"
         style="fill:#231f20;fill-opacity:1;fill-rule:nonzero;stroke:none"
         id="path11722"
         inkscape:connector-curvature="0" /><path
         d="m 178.20459,-369.60693 c 0,0 -2.46094,-1.64161 -2.46094,-1.64161 0,0 -0.18652,0.35889 -0.18652,0.35889 0,0 2.40088,2.01563 2.40088,2.01563 0,0 0.24658,-0.73291 0.24658,-0.73291 z"
         style="fill:#231f20;fill-opacity:1;fill-rule:nonzero;stroke:none"
         id="path11724"
         inkscape:connector-curvature="0" /><path
         d="m 273.57178,-371.24854 c 0,0 -3.25733,-4.24169 -3.25733,-4.24169 0,0 -16.9917,0 -16.9917,0 0,0 0,8.49414 0,8.49414 0,0 2.27002,2.59668 2.27002,2.59668 0,0 0,7.85156 0,7.85156 0,0 -67.91406,0 -67.91406,0 0,0 0,-12.07764 0,-12.07764 0,0 -32.33642,-22.87305 -32.33642,-22.87305 0,0 -2.27979,0 -2.27979,0 0,0 0.31104,1.96583 0.31104,1.96583 0,0 22.18359,18.64306 22.18359,18.64306 0,0 0.18652,-0.35889 0.18652,-0.35889 0,0 2.46094,1.64161 2.46094,1.64161 0,0 -0.24658,0.73291 -0.24658,0.73291 0,0 3.00781,2.52929 3.00781,2.52929 0,0 0,9.79688 0,9.79688 0,0 -7.17334,0 -7.17334,0 0,0 4.16553,-12.32617 4.16553,-12.32617 0,0 -2.40088,-2.01563 -2.40088,-2.01563 0,0 -2.43506,4.53369 -2.43506,4.53369 0,0 -4.72021,10.12989 -4.72021,10.12989 0,0 -3.25684,0 -3.25684,0 0,0 -3.59229,9.48486 -3.59229,9.48486 -1.33691,3.4248 -0.27343,8.65234 2.12745,11.30664 1.99365,-0.47461 4.54785,-0.86133 7.82861,-0.86133 15.10791,0 12.41357,6.54981 28.90381,6.54981 16.48291,0 13.80566,-6.54981 28.89599,-6.54981 15.12159,0 12.43702,6.54981 28.91993,6.54981 16.48877,0 13.79492,-6.54981 28.90332,-6.54981 15.09961,0 12.40478,6.54981 28.89941,6.54981 12.95166,0 14.09717,-4.02539 21.29102,-5.76075 0,0 -33.26221,-35.7417 -33.26221,-35.7417 0,0 -30.48828,0 -30.48828,0 z"
         style="fill:#ffffff;fill-opacity:1;fill-rule:nonzero;stroke:none"
         id="path11726"
         inkscape:connector-curvature="0" /><path
         d="m 315.53564,-424.15576 c 0,0 -0.47851,-1.14893 -0.47851,-1.14893 0,0 -1.11817,0.38574 -1.11817,0.38574 0,0 0.4629,1.17188 0.4629,1.17188 0,0 1.13378,-0.40869 1.13378,-0.40869 z"
         style="fill:#231f20;fill-opacity:1;fill-rule:nonzero;stroke:none"
         id="path11728"
         inkscape:connector-curvature="0" /><path
         d="m 325.01172,-397.84863 c 0.15478,0 -0.32666,-1.14502 -0.32666,-1.14502 0,0 -0.43408,0.11621 -0.43408,0.11621 0,0 0.44091,1.11377 0.44091,1.11377 0.18262,-0.0527 0.31153,-0.085 0.31983,-0.085 z"
         style="fill:#231f20;fill-opacity:1;fill-rule:nonzero;stroke:none"
         id="path11730"
         inkscape:connector-curvature="0" /><path
         d="m 481.28223,-394.26465 c -0.9668,3.43067 -9.95801,10.10498 -19.24414,10.61279 0,0 -21.90723,0.82178 -21.90723,0.82178 0,0 0,-14.01123 0,-14.01123 0,0 -1.75781,-1.75683 -1.75781,-1.75683 0,0 1.68261,0 1.68261,0 0,0 1.38379,-1.37159 1.38379,-1.37159 0,0 0,-4.42334 0,-4.42334 0,0 -1.30175,-1.30273 -1.30175,-1.30273 0,0 -6.68946,0 -6.68946,0 0,0 0,-4.73145 0,-4.73145 0,0 -1.47656,-1.46386 -1.47656,-1.46386 0,0 0,-8.66944 0,-8.66944 0,0 -2.46094,-2.42383 -2.46094,-2.42383 0,0 0,-9.95703 0,-9.95703 0,0 -5.8623,0 -5.8623,0 0,0 0,8.45801 0,8.45801 0,0 1.80469,0 1.80469,0 0,0 0,1.30762 0,1.30762 0,0 -1.30665,0.97803 -1.30665,0.97803 0,0 0,1.81543 0,1.81543 0,0 -1.3955,0 -1.3955,0 0,0 0.085,0.14892 0.085,0.14892 0,0 -2.46094,0 -2.46094,0 0,0 -0.083,-0.14892 -0.083,-0.14892 0,0 -16.56836,0 -16.56836,0 0,0 0,-28.75635 0,-28.75635 0,0 16.56836,28.75635 16.56836,28.75635 0,0 2.45899,0 2.45899,0 0,0 -17.38575,-30.54004 -17.38575,-30.54004 0,0 7.50977,-7.52539 7.50977,-7.52539 0,0 0,-2.28565 0,-2.28565 0,0 4.73047,0 4.73047,0 0,0 0,-1.96045 0,-1.96045 0,0 -10.77051,0 -10.77051,0 0,0 0,1.96045 0,1.96045 0,0 4.14746,0 4.14746,0 0,0 0,1.55518 0,1.55518 0,0 -1.05176,1.06592 -1.05176,1.06592 0,0 -6.68847,0 -6.68847,0 0.15527,0 0,-8.18458 0,-8.18458 0,0 4.5664,-4.22949 4.5664,-4.22949 0,0 0,-1.80078 0,-1.80078 0,0 -4.5664,0 -4.5664,0 0,0 0,-13.88183 0,-13.88183 0,0 8,0 8,0 0,0 0.65527,-0.49512 0.65527,-0.49512 0,0 0,-1.78906 0,-1.78906 0,0 -0.49414,-0.64112 -0.49414,-0.64112 0,0 -8.99707,0 -8.99707,0 0,0 0,-13.07422 0,-13.07422 0,0 -0.62402,0 -0.62402,0 0,0 0,13.07422 0,13.07422 0,0 -8.83301,0 -8.83301,0 0,0 -0.48926,0.64112 -0.48926,0.64112 0,0 0,1.78906 0,1.78906 0,0 0.65625,0.49512 0.65625,0.49512 0,0 8.01074,0 8.01074,0 0,0 0,13.88183 0,13.88183 0,0 -4.57226,0 -4.57226,0 0,0 0,1.80078 0,1.80078 0,0 4.57226,4.22949 4.57226,4.22949 0,0 -0.1914,41.65186 0,41.65186 0.16504,0 -5.07031,0 -5.07031,0 0,0 -1.32812,0.81934 -1.32812,0.81934 0,0 -0.13477,3.59228 0,3.59228 0.19824,0 -6.35645,0 -6.35645,0 0,0 0,-1.30078 0,-1.30078 0,0 -0.62598,-1.14551 -0.62598,-1.14551 0,0 -9.97754,0 -9.97754,0 0,0 -1.30859,1.46485 -1.30859,1.46485 0,0 0,4.90722 0,4.90722 0,0 -7.35742,0 -7.35742,0 0,0 0,3.10254 0,3.10254 0,0 0.81641,0.82227 0.81641,0.82227 0,0 0,14.53418 0,14.53418 0,0 -5.38477,0 -5.38477,0 0,0 0,-22.71192 0,-22.71192 0,0 -2.93262,-3.10205 -2.93262,-3.10205 0,0 -4.41113,0 -4.41113,0 0,0 -17.4668,3.92383 -17.4668,3.92383 0,0 -0.99267,0.82275 -0.99267,0.82275 0,0 0,6.85157 0,6.85157 0,0 0.65576,0.65527 0.65576,0.65527 0,0 0,14.20313 0,14.20313 0,0 -9.15186,0 -9.15186,0 0,0 -0.16406,-27.43897 0,-27.43897 0.16797,0 -4.41211,0 -4.41211,0 0,0 0,3.11084 0,3.11084 0,0 1.146,0.7998 1.146,0.7998 0,0 0,25.00489 0,25.00489 0,0 -20.07373,-50.10254 -20.07373,-50.10254 0,0 0,3.12353 0,3.12353 0,0 7.04394,17.78955 7.04394,17.78955 0,0 1.11817,-0.38574 1.11817,-0.38574 0,0 0.47851,1.14893 0.47851,1.14893 0,0 -1.13378,0.40869 -1.13378,0.40869 0,0 9.84912,24.86963 9.84912,24.86963 0,0 0.43408,-0.11621 0.43408,-0.11621 0,0 0.48144,1.14502 0.32666,1.14502 -0.008,0 -0.13721,0.0322 -0.31983,0.085 0,0 1.13086,2.85644 1.13086,2.85644 0,0 -5.54248,2.61133 -5.54248,2.61133 0,0 0,19.58692 0,19.58692 0,0 -5.58203,0 -5.58203,0 0,0 34.75781,36.67187 34.75781,36.67187 10.18946,1.16211 9.79102,6.29102 24.38672,6.29102 16.49121,0 13.81641,-6.54981 28.89746,-6.54981 15.11231,0 12.44239,6.54981 28.90528,6.54981 16.48926,0 13.7959,-6.54981 28.91015,-6.54981 15.09668,0 12.41016,6.54981 28.90137,6.54981 13.09766,0 14.12012,-4.1543 21.53516,-5.8711 0,0 13.90625,-59.12744 13.90625,-59.12744 0,0 1.80957,-1.80273 1.80957,-1.80273 0,0 0,-2.28223 0,-2.28223 0,0 -45.42578,4.56494 -45.42578,4.56494 z"
         style="fill:#ffffff;fill-opacity:1;fill-rule:nonzero;stroke:none"
         id="path11732"
         inkscape:connector-curvature="0" /><path
         d="m 307.05713,-392.7998 c 0,0 15.28369,-4.33301 17.63476,-4.96387 0,0 -0.44091,-1.11377 -0.44091,-1.11377 0,0 -17.35596,4.61279 -17.35596,4.61279 0,0 0,-26.78662 0,-26.78662 0,0 7.50684,-2.6958 7.50684,-2.6958 0,0 -0.4629,-1.17188 -0.4629,-1.17188 0,0 -7.04394,2.40137 -7.04394,2.40137 0,0 0,-20.19092 0,-20.19092 0,0 -0.67041,-1.68554 -0.67041,-1.68554 0,0 0,-3.10303 0,-3.10303 0,0 0.67041,1.66504 0.67041,1.66504 0,0 0,-12.28027 0,-12.28027 0,0 -3.92188,-5.22364 -3.92188,-5.22364 0,0 0,-9.14697 0,-9.14697 0,0 -0.98584,0 -0.98584,0 0,0 0,10.10937 0,10.10937 0,0 3.26758,4.26124 3.26758,4.26124 0,0 0,75.43994 0,75.43994 0,0 1.80225,1.90673 1.80225,1.90673 0,0 0,-12.03417 0,-12.03417 z"
         style="fill:#ffffff;fill-opacity:1;fill-rule:nonzero;stroke:none"
         id="path11734"
         inkscape:connector-curvature="0" /><path
         d="m 306.22461,-444.39404 c 0,0 0.67041,1.68554 0.67041,1.68554 0,0 0,-3.12353 0,-3.12353 0,0 -0.67041,-1.66504 -0.67041,-1.66504 0,0 0,3.10303 0,3.10303 z"
         style="fill:#231f20;fill-opacity:1;fill-rule:nonzero;stroke:none"
         id="path11736"
         inkscape:connector-curvature="0" /><path
         d="m 307.05713,-372.70898 c 0,0 7.64111,0 7.64111,0 0,0 -7.64111,-8.05665 -7.64111,-8.05665 0,0 0,8.05665 0,8.05665 z"
         style="fill:#ffffff;fill-opacity:1;fill-rule:nonzero;stroke:none"
         id="path11738"
         inkscape:connector-curvature="0" /><path
         d="m 253.93506,-437.78418 c 0,0 -1.26758,0.0205 -1.26758,0.0205 0,0 -17.95019,-18.77246 -17.95019,-18.77246 0,0 -0.18067,-1.3545 -0.18067,-1.3545 0,0 16.55908,-15.54931 16.55908,-15.54931 0,0 1.0542,0.0967 1.0542,0.0967 5.83057,6.50586 8.55762,15.68799 6.57813,24.88428 -0.86719,3.93457 -2.65967,7.67675 -4.79297,10.6748 z m -6.24072,6.36572 c -3.11817,1.95215 -7.47803,3.50196 -11.49317,4.08789 -9.28271,1.42823 -18.2832,-1.86718 -24.41846,-8.10351 0,0 -0.0264,-1.06738 -0.0264,-1.06738 0,0 16.53564,-15.55079 16.53564,-15.55079 0,0 1.3711,0.28565 1.3711,0.28565 0,0 18.12793,19.07275 18.12793,19.07275 0,0 -0.0967,1.27539 -0.0967,1.27539 z m 57.56054,48.7461 c 0,0 -40.27929,-42.49463 -40.27929,-42.49463 0,0 -6.01954,-6.01319 -6.01954,-6.01319 0,0 0.0142,-1.54785 0.0142,-1.54785 10.1377,-13.32666 9.27881,-32.5083 -2.54101,-45.09961 0,0 -21.43115,-22.11865 -21.43115,-22.11865 -1.91895,-1.97998 -0.46973,-5.94726 1.49072,-7.854 -2.9585,-0.62989 -22.25439,-6.69873 -27.95898,-11.8086 0,0 40.24218,42.00977 40.24218,42.00977 0,0 -0.0342,1.08789 -0.0342,1.08789 0,0 -16.85302,15.80518 -16.85302,15.80518 0,0 -1.2295,-0.14405 -1.2295,-0.14405 0,0 -30.05371,-31.47705 -30.05371,-31.47705 -1.91845,-1.95508 -0.70849,-6.13476 1.26123,-8.03906 -2.96777,-0.65234 -19.39111,-6.2749 -24.37256,-12.00537 5.43165,5.32178 10.02491,22.05029 10.47071,25.0498 2.03467,-1.84619 6.26465,-2.79931 8.12744,-0.75342 0,0 29.5293,31.97413 29.5293,31.97413 0,0 0.0542,1.26416 0.0542,1.26416 0,0 -16.81348,15.79736 -16.81348,15.79736 0,0 -1.1084,-0.0439 -1.1084,-0.0439 0,0 -39.4043,-42.78418 -39.4043,-42.78418 4.74561,6.00635 9.57666,25.60889 10.02686,28.65088 2.04004,-1.84912 6.09326,-3.04834 7.93017,-1.02832 0,0 20.73487,22.77442 20.73487,22.77442 11.81592,12.61181 30.63916,14.91943 44.58105,5.64111 0,0 1.55664,0.0986 1.55664,0.0986 0,0 5.88282,6.11524 5.88282,6.11524 0,0 45.00195,48.36718 45.00195,48.36718 0,0 1.19482,0 1.19482,0 0,0 0,-11.42382 0,-11.42382 z"
         style="fill:#ffffff;fill-opacity:1;fill-rule:nonzero;stroke:none"
         id="path11740"
         inkscape:connector-curvature="0" /><path
         d="m 337.32227,-335.50684 c 0,0 149.61621,160.79883 149.61621,160.79883 0,0 1.73242,0.20996 1.73242,0.20996 0,0 6.5039,-6.11523 6.5039,-6.11523 0,0 -0.0459,-1.76465 -0.0459,-1.76465 0,0 -145.67286,-153.65918 -145.67286,-153.65918 -1.31347,-0.15918 -2.78906,-0.25879 -4.52246,-0.25879 -3.24121,0 -5.64306,0.32227 -7.61132,0.78906 z"
         style="fill:#ffffff;fill-opacity:1;fill-rule:nonzero;stroke:none"
         id="path11742"
         inkscape:connector-curvature="0" /><path
         d="m 307.05713,-372.70898 c 0,0 0,-8.05665 0,-8.05665 0,0 -1.80225,-1.90673 -1.80225,-1.90673 0,0 0,11.42382 0,11.42382 0,0 -1.19482,0 -1.19482,0 0,0 33.26221,35.7417 33.26221,35.7417 1.96826,-0.46679 4.37011,-0.78906 7.61132,-0.78906 1.7334,0 3.20899,0.0996 4.52246,0.25879 0,0 -34.75781,-36.67187 -34.75781,-36.67187 0,0 -7.64111,0 -7.64111,0 z"
         style="fill:#4b87ce;fill-opacity:1;fill-rule:nonzero;stroke:none"
         id="path11744"
         inkscape:connector-curvature="0" /><path
         d="m 345.0918,-108.75977 c -132.5083,0 -239.91651,-107.43164 -239.91651,-239.92431 0,-132.5127 107.40821,-239.91895 239.91651,-239.91895 132.51855,0 239.94531,107.40625 239.94531,239.91895 0,132.49267 -107.42676,239.92431 -239.94531,239.92431 z m 0.34765,-539.57959 c -165.93506,0 -300.46826,134.52198 -300.46826,300.46582 0,165.91553 134.5332,300.43213 300.46826,300.43213 165.92188,0 300.41211,-134.5166 300.41211,-300.43213 0,-165.94384 -134.49023,-300.46582 -300.41211,-300.46582 z"
         style="fill:#ffffff;fill-opacity:1;fill-rule:nonzero;stroke:none"
         id="path11746"
         inkscape:connector-curvature="0" /><path
         d="m 345.0918,-108.75977 c -132.5083,0 -239.91651,-107.43164 -239.91651,-239.92431 0,-132.5127 107.40821,-239.91895 239.91651,-239.91895 132.51855,0 239.94531,107.40625 239.94531,239.91895 0,132.49267 -107.42676,239.92431 -239.94531,239.92431 z m 0.34765,-539.57959 c -165.93506,0 -300.46826,134.52198 -300.46826,300.46582 0,165.91553 134.5332,300.43213 300.46826,300.43213 165.92188,0 300.41211,-134.5166 300.41211,-300.43213 0,-165.94384 -134.49023,-300.46582 -300.41211,-300.46582 z"
         style="fill:none;stroke:#176fc1;stroke-width:0.89999002;stroke-linecap:butt;stroke-linejoin:miter;stroke-miterlimit:4;stroke-dasharray:none;stroke-opacity:1"
         id="path11748"
         inkscape:connector-curvature="0" /><path
         d="m 67.52979,-361.79395 c -1.61817,0.88184 -2.46827,2.06788 -2.54395,3.98829 -0.07227,2.02587 1.2251,4.30127 3.44775,4.38623 1.9878,0.0732 3.10938,-1.84327 3.77246,-3.39991 0,0 0.77735,-1.80517 0.77735,-1.80517 1.55322,-3.5459 3.63916,-6.17188 7.88623,-6.01172 4.62012,0.16943 7.7915,3.86182 7.6167,8.41309 -0.15381,4.11181 -3.30371,7.20263 -7.40332,7.58837 0,0 -0.55176,-3.22461 -0.55176,-3.22461 2.7915,0.13721 4.89844,-2.00732 5.00098,-4.74023 0.10009,-2.73144 -2.1167,-4.77002 -4.77832,-4.87305 -2.7334,-0.0991 -3.99121,2.04151 -4.98438,4.20362 0,0 -0.80859,1.72607 -0.80859,1.72607 -1.35254,2.85059 -3.10254,5.41846 -6.64551,5.28369 -4.10986,-0.14551 -6.43652,-3.87597 -6.29297,-7.72558 0.10498,-2.82764 1.57422,-5.10205 4.08887,-6.39649 0,0 1.41846,2.5874 1.41846,2.5874 z"
         style="fill:#176fc1;fill-opacity:1;fill-rule:nonzero;stroke:none"
         id="path11750"
         inkscape:connector-curvature="0" /><path
         d="m 70.97314,-393.53125 c -1.84375,1.58887 -3.04736,3.94775 -3.36669,6.32227 -0.76026,5.65283 3.37548,10.60009 8.95898,11.34472 5.51953,0.73975 10.80469,-2.90625 11.56152,-8.52295 0.33008,-2.47461 -0.28808,-4.97314 -1.7041,-7.06982 0,0 3.70899,0.50098 3.70899,0.50098 0.875,2.08789 1.18017,4.64697 0.88379,6.86084 -0.96827,7.18261 -7.48047,12.36718 -14.76661,11.38867 -7.45752,-1.00147 -12.47265,-7.76367 -11.47509,-15.19043 0.29492,-2.20752 1.13086,-4.37403 2.55908,-6.12354 0,0 3.64013,0.48926 3.64013,0.48926 z"
         style="fill:#176fc1;fill-opacity:1;fill-rule:nonzero;stroke:none"
         id="path11752"
         inkscape:connector-curvature="0" /><path
         d="m 83.96875,-408.79736 c 0.40918,-3.67969 -1.99316,-6.73194 -5.54687,-7.56446 -2.36182,-0.55371 -4.96827,0.0835 -6.66651,1.87159 -1.57812,1.71142 -2.16357,4.06591 -2.67969,6.26806 0,0 -0.87402,3.74561 -0.87402,3.74561 0,0 24.76514,5.78564 24.76514,5.78564 0,0 0.72314,-3.0874 0.72314,-3.0874 0,0 -10.47558,-2.44629 -10.47558,-2.44629 0,0 0.29492,-1.28271 0.29492,-1.28271 0,0 12.18408,-4.8462 12.18408,-4.8462 0,0 0.87939,-3.74414 0.87939,-3.74414 0,0 -12.604,5.3003 -12.604,5.3003 z m -12.28516,1.87793 c 0,0 0.19092,-0.82471 0.19092,-0.82471 0.71143,-3.05274 2.13233,-6.60059 6.00635,-5.69775 3.94434,0.92529 3.73633,4.479 2.99902,7.63134 0,0 -0.229,0.98535 -0.229,0.98535 0,0 -8.96729,-2.09423 -8.96729,-2.09423 z"
         style="fill:#176fc1;fill-opacity:1;fill-rule:nonzero;stroke:none"
         id="path11754"
         inkscape:connector-curvature="0" /><path
         d="m 99.63232,-423.98535 c 0,0 -0.9375,3.03369 -0.9375,3.03369 0,0 -24.29882,-7.50684 -24.29882,-7.50684 0,0 0.93261,-3.02783 0.93261,-3.02783 0,0 24.30371,7.50098 24.30371,7.50098 z"
         style="fill:#176fc1;fill-opacity:1;fill-rule:nonzero;stroke:none"
         id="path11756"
         inkscape:connector-curvature="0" /><path
         d="m 93.80225,-439.83594 c 0,0 0.65088,-1.6997 0.65088,-1.6997 1.72851,-4.5044 1.27392,-9.05225 -3.73731,-10.97266 -4.3418,-1.66992 -7.73437,-0.36768 -10.54004,6.93555 0,0 -1.30224,3.40234 -1.30224,3.40234 0,0 23.74267,9.11279 23.74267,9.11279 0,0 1.13916,-2.95752 1.13916,-2.95752 0,0 -9.95312,-3.8208 -9.95312,-3.8208 z m -11.146,-4.27734 c 0,0 0.30029,-0.78613 0.30029,-0.78613 1.12207,-2.92774 2.91992,-6.29053 6.63379,-4.86182 3.7793,1.44971 3.09326,4.94189 1.92871,7.96387 0,0 -0.36474,0.94629 -0.36474,0.94629 0,0 -8.49805,-3.26221 -8.49805,-3.26221 z"
         style="fill:#176fc1;fill-opacity:1;fill-rule:nonzero;stroke:none"
         id="path11758"
         inkscape:connector-curvature="0" /><path
         d="m 102.28906,-460.06348 c 0,0 0.79004,-1.63867 0.79004,-1.63867 2.09326,-4.34619 2.01221,-8.91797 -2.81836,-11.24414 -4.1997,-2.02295 -7.68066,-1.00635 -11.07666,6.04492 0,0 -1.58008,3.28223 -1.58008,3.28223 0,0 22.9087,11.03955 22.9087,11.03955 0,0 1.37793,-2.8584 1.37793,-2.8584 0,0 -9.60157,-4.62549 -9.60157,-4.62549 z m -10.76074,-5.18164 c 0,0 0.36963,-0.7583 0.36963,-0.7583 1.35791,-2.82715 3.42627,-6.02734 7.01221,-4.29785 3.64795,1.75391 2.66894,5.18018 1.2622,8.09961 0,0 -0.43652,0.90967 -0.43652,0.90967 0,0 -8.20752,-3.95313 -8.20752,-3.95313 z"
         style="fill:#176fc1;fill-opacity:1;fill-rule:nonzero;stroke:none"
         id="path11760"
         inkscape:connector-curvature="0" /><path
         d="m 107.98145,-491.59131 c -1.84522,0.007 -3.16016,0.63916 -4.14112,2.29688 -1.02734,1.73925 -0.96972,4.35888 0.94776,5.49511 1.70947,1.01172 3.60839,-0.13964 4.93896,-1.20019 0,0 1.53516,-1.20606 1.53516,-1.20606 3.05713,-2.38525 6.14111,-3.69677 9.80029,-1.53222 3.97754,2.35156 5.00928,7.11425 2.68945,11.03076 -2.09131,3.54199 -6.33984,4.7583 -10.12646,3.14355 0,0 1.05127,-3.09668 1.05127,-3.09668 2.38916,1.44727 5.2666,0.56543 6.65429,-1.78906 1.39454,-2.35254 0.41407,-5.20215 -1.87939,-6.5581 -2.35107,-1.39307 -4.48437,-0.1045 -6.38525,1.32226 0,0 -1.53077,1.13037 -1.53077,1.13037 -2.55029,1.86084 -5.31396,3.2876 -8.36279,1.48291 -3.54053,-2.09375 -3.80762,-6.4834 -1.84765,-9.7959 1.43701,-2.43603 3.81201,-3.73584 6.63623,-3.67431 0,0 0.02,2.95068 0.02,2.95068 z"
         style="fill:#176fc1;fill-opacity:1;fill-rule:nonzero;stroke:none"
         id="path11762"
         inkscape:connector-curvature="0" /><path
         d="m 142.26416,-504.78467 c 0,0 -1.93701,2.50488 -1.93701,2.50488 0,0 -20.11914,-15.56005 -20.11914,-15.56005 0,0 1.93799,-2.50879 1.93799,-2.50879 0,0 20.11816,15.56396 20.11816,15.56396 z"
         style="fill:#176fc1;fill-opacity:1;fill-rule:nonzero;stroke:none"
         id="path11764"
         inkscape:connector-curvature="0" /><path
         d="m 127.99463,-529.79492 c 0,0 27.64453,-0.5669 27.64453,-0.5669 0,0 -13.85449,-12.69433 -13.85449,-12.69433 0,0 2.14306,-2.33252 2.14306,-2.33252 0,0 19.52784,17.88476 19.52784,17.88476 0,0 -27.64551,0.56348 -27.64551,0.56348 0,0 13.979,12.80762 13.979,12.80762 0,0 -2.14502,2.33642 -2.14502,2.33642 0,0 -19.64941,-17.99853 -19.64941,-17.99853 z"
         style="fill:#176fc1;fill-opacity:1;fill-rule:nonzero;stroke:none"
         id="path11766"
         inkscape:connector-curvature="0" /><path
         d="m 163.83789,-557.09766 c -1.76025,-0.55908 -3.20557,-0.35937 -4.63965,0.92286 -1.51367,1.34326 -2.2622,3.85839 -0.78174,5.51953 1.31983,1.48535 3.47901,0.96972 5.06788,0.37402 0,0 1.83447,-0.68164 1.83447,-0.68164 3.63232,-1.33984 6.9751,-1.64307 9.79541,1.52978 3.07568,3.45655 2.59521,8.30127 -0.80908,11.32764 -3.07227,2.73291 -7.48731,2.59375 -10.60157,-0.0991 0,0 1.94873,-2.63477 1.94873,-2.63477 1.83399,2.11622 4.84082,2.15088 6.88379,0.33545 2.04102,-1.81347 1.98242,-4.82763 0.21143,-6.82275 -1.81445,-2.04053 -4.23877,-1.46582 -6.48242,-0.68945 0,0 -1.80469,0.60888 -1.80469,0.60888 -2.99658,0.99756 -6.05957,1.50586 -8.41406,-1.14062 -2.73535,-3.07373 -1.646,-7.3374 1.22607,-9.89209 2.11963,-1.88086 4.7793,-2.39258 7.44873,-1.46924 0,0 -0.8833,2.81152 -0.8833,2.81152 z"
         style="fill:#176fc1;fill-opacity:1;fill-rule:nonzero;stroke:none"
         id="path11768"
         inkscape:connector-curvature="0" /><path
         d="m 191.63672,-552.90332 c 0,0 -2.53223,1.90869 -2.53223,1.90869 0,0 -13.5415,-18.01172 -13.5415,-18.01172 0,0 -4.82861,3.62598 -4.82861,3.62598 0,0 -1.74512,-2.31543 -1.74512,-2.31543 0,0 12.18945,-9.16504 12.18945,-9.16504 0,0 1.74317,2.31787 1.74317,2.31787 0,0 -4.8252,3.62793 -4.8252,3.62793 0,0 13.54004,18.01172 13.54004,18.01172 z"
         style="fill:#176fc1;fill-opacity:1;fill-rule:nonzero;stroke:none"
         id="path11770"
         inkscape:connector-curvature="0" /><path
         d="m 204.84375,-562.08057 c 0,0 -2.64746,1.74463 -2.64746,1.74463 0,0 -13.98389,-21.24609 -13.98389,-21.24609 0,0 2.64844,-1.74512 2.64844,-1.74512 0,0 13.98291,21.24658 13.98291,21.24658 z"
         style="fill:#176fc1;fill-opacity:1;fill-rule:nonzero;stroke:none"
         id="path11772"
         inkscape:connector-curvature="0" /><path
         d="m 218.60596,-570.41797 c 0,0 -2.75147,1.5752 -2.75147,1.5752 0,0 -11.18701,-19.56202 -11.18701,-19.56202 0,0 -5.24023,2.99561 -5.24023,2.99561 0,0 -1.44043,-2.51611 -1.44043,-2.51611 0,0 13.23339,-7.5708 13.23339,-7.5708 0,0 1.4419,2.51709 1.4419,2.51709 0,0 -5.24365,3 -5.24365,3 0,0 11.1875,19.56103 11.1875,19.56103 z"
         style="fill:#176fc1;fill-opacity:1;fill-rule:nonzero;stroke:none"
         id="path11774"
         inkscape:connector-curvature="0" /><path
         d="m 221.8042,-600.85059 c 0,0 6.23779,13.65381 6.23779,13.65381 1.72217,3.77783 4.45508,6.75244 8.91065,4.72315 4.44384,-2.03125 3.98242,-6.04688 2.25927,-9.82276 0,0 -6.23828,-13.65381 -6.23828,-13.65381 0,0 2.88672,-1.31933 2.88672,-1.31933 0,0 6.68262,14.63867 6.68262,14.63867 2.32715,5.09131 0.94775,10.43262 -4.36084,12.85645 -5.31006,2.42285 -10.24512,-0.0283 -12.57324,-5.12305 0,0 -6.6875,-14.63574 -6.6875,-14.63574 0,0 2.88281,-1.31739 2.88281,-1.31739 z"
         style="fill:#176fc1;fill-opacity:1;fill-rule:nonzero;stroke:none"
         id="path11776"
         inkscape:connector-curvature="0" /><path
         d="m 261.0127,-589.47217 c 0,0 -2.99463,1.04541 -2.99463,1.04541 0,0 -7.45215,-21.25976 -7.45215,-21.25976 0,0 -5.7002,1.99902 -5.7002,1.99902 0,0 -0.95947,-2.7417 -0.95947,-2.7417 0,0 14.38965,-5.04053 14.38965,-5.04053 0,0 0.95849,2.73438 0.95849,2.73438 0,0 -5.69775,2 -5.69775,2 0,0 7.45606,21.26318 7.45606,21.26318 z"
         style="fill:#176fc1;fill-opacity:1;fill-rule:nonzero;stroke:none"
         id="path11778"
         inkscape:connector-curvature="0" /><path
         d="m 276.37646,-594.21094 c 0,0 -3.05078,0.85547 -3.05078,0.85547 0,0 -6.88476,-24.4834 -6.88476,-24.4834 0,0 3.05322,-0.85693 3.05322,-0.85693 0,0 6.88232,24.48486 6.88232,24.48486 z"
         style="fill:#176fc1;fill-opacity:1;fill-rule:nonzero;stroke:none"
         id="path11780"
         inkscape:connector-curvature="0" /><path
         d="m 291.6543,-624.38232 c -7.15918,1.35253 -11.98291,8.34179 -10.625,15.50244 1.40283,7.42334 8.32812,11.91259 15.5542,10.54736 7.22705,-1.36426 12.03173,-8.07812 10.62939,-15.5 -1.3584,-7.15918 -8.39648,-11.9043 -15.55859,-10.5498 z m 4.37841,23.13525 c -5.40429,1.02344 -10.81005,-2.52295 -11.88964,-8.22461 -1.04102,-5.50293 2.1997,-10.88623 8.06494,-11.99609 5.86523,-1.11036 10.84863,2.72021 11.88965,8.22216 1.07519,5.70362 -2.66358,10.97559 -8.06495,11.99854 z"
         style="fill:#176fc1;fill-opacity:1;fill-rule:nonzero;stroke:none"
         id="path11782"
         inkscape:connector-curvature="0" /><path
         d="m 314.68066,-628.65674 c 0,0 20.35743,18.71826 20.35743,18.71826 0,0 -1.22754,-18.75195 -1.22754,-18.75195 0,0 3.16797,-0.20654 3.16797,-0.20654 0,0 1.72265,26.42285 1.72265,26.42285 0,0 -20.35644,-18.71143 -20.35644,-18.71143 0,0 1.23828,18.91553 1.23828,18.91553 0,0 -3.16358,0.20557 -3.16358,0.20557 0,0 -1.73877,-26.59229 -1.73877,-26.59229 z"
         style="fill:#176fc1;fill-opacity:1;fill-rule:nonzero;stroke:none"
         id="path11784"
         inkscape:connector-curvature="0" /><path
         d="m 376.375,-627.53369 c -7.2373,-0.81201 -13.90918,4.44629 -14.72168,11.68555 -0.84082,7.50878 4.45215,13.83935 11.76563,14.66113 7.30468,0.82373 13.8789,-4.17627 14.71875,-11.68604 0.8125,-7.2373 -4.52344,-13.84472 -11.7627,-14.66064 z m -2.62109,23.39795 c -5.46973,-0.61621 -9.59668,-5.59375 -8.9502,-11.35938 0.62988,-5.56103 5.30664,-9.75634 11.24219,-9.09131 5.92969,0.6709 9.56445,5.79493 8.94433,11.3584 -0.64843,5.76807 -5.78125,9.70606 -11.23632,9.09229 z"
         style="fill:#176fc1;fill-opacity:1;fill-rule:nonzero;stroke:none"
         id="path11786"
         inkscape:connector-curvature="0" /><path
         d="m 401.71484,-620.01074 c 0,0 -1.51855,6.98974 -1.51855,6.98974 0,0 8.63672,1.87696 8.63672,1.87696 0,0 -0.61524,2.83398 -0.61524,2.83398 0,0 -8.64062,-1.87842 -8.64062,-1.87842 0,0 -2.65332,12.19629 -2.65332,12.19629 0,0 -3.09961,-0.67334 -3.09961,-0.67334 0,0 5.4043,-24.85595 5.4043,-24.85595 0,0 12.03906,2.61816 12.03906,2.61816 0,0 -0.62207,2.8335 -0.62207,2.8335 0,0 -8.93067,-1.94092 -8.93067,-1.94092 z"
         style="fill:#176fc1;fill-opacity:1;fill-rule:nonzero;stroke:none"
         id="path11788"
         inkscape:connector-curvature="0" /><path
         d="m 447.81152,-609.82617 c -6.78027,-2.66602 -14.58496,0.68359 -17.25293,7.46338 -2.75683,7.03418 0.7168,14.52588 7.55957,17.21289 6.8418,2.68994 14.48829,-0.43408 17.24805,-7.46387 2.66406,-6.78662 -0.77637,-14.54443 -7.55469,-17.2124 z m -8.60644,21.91113 c -5.11524,-2.01123 -7.81055,-7.88476 -5.69043,-13.28613 2.04492,-5.21192 7.65625,-8.04737 13.21094,-5.86524 5.56152,2.18457 7.73632,8.08008 5.6914,13.28711 -2.12304,5.40381 -8.09472,7.87793 -13.21191,5.86426 z"
         style="fill:#176fc1;fill-opacity:1;fill-rule:nonzero;stroke:none"
         id="path11790"
         inkscape:connector-curvature="0" /><path
         d="m 483.18848,-586.98047 c -0.84668,-2.28418 -2.63672,-4.23389 -4.75489,-5.35547 -5.0332,-2.67578 -11.10937,-0.52295 -13.74804,4.4502 -2.6211,4.91308 -1.04297,11.14209 3.9541,13.80322 2.20703,1.16943 4.7666,1.46484 7.23242,0.86279 0,0 -1.75781,3.30518 -1.75781,3.30518 -2.27051,0.0947 -4.77051,-0.51514 -6.74219,-1.56006 -6.40039,-3.40478 -8.99805,-11.31982 -5.53809,-17.8081 3.53711,-6.64551 11.62012,-8.99122 18.23243,-5.47168 1.96289,1.04541 3.71191,2.58251 4.8457,4.52734 0,0 -1.72363,3.24658 -1.72363,3.24658 z"
         style="fill:#176fc1;fill-opacity:1;fill-rule:nonzero;stroke:none"
         id="path11792"
         inkscape:connector-curvature="0" /><path
         d="m 494.38867,-585.77979 c 0,0 11.39746,7.52149 11.39746,7.52149 0,0 -1.5957,2.42529 -1.5957,2.42529 0,0 -8.75488,-5.78027 -8.75488,-5.78027 0,0 -3.91602,5.94287 -3.91602,5.94287 0,0 8.4961,5.60986 8.4961,5.60986 0,0 -1.59083,2.41992 -1.59083,2.41992 0,0 -8.50585,-5.60839 -8.50585,-5.60839 0,0 -5.29688,8.02148 -5.29688,8.02148 0,0 8.75684,5.77686 8.75684,5.77686 0,0 -1.59864,2.42187 -1.59864,2.42187 0,0 -11.40722,-7.52099 -11.40722,-7.52099 0,0 14.01562,-21.22999 14.01562,-21.22999 z"
         style="fill:#176fc1;fill-opacity:1;fill-rule:nonzero;stroke:none"
         id="path11794"
         inkscape:connector-curvature="0" /><path
         d="m 514.35254,-547.61035 c 0,0 -1.75,6.77685 -1.75,6.77685 0,0 2.65039,2.14112 2.65039,2.14112 0,0 7.22754,-28.25 7.22754,-28.25 0,0 -26.11524,12.97705 -26.11524,12.97705 0,0 2.6543,2.14551 2.6543,2.14551 0,0 6.26367,-3.13379 6.26367,-3.13379 0,0 9.06934,7.34326 9.06934,7.34326 z m 0.79785,-3.08594 c 0,0 -7.03027,-5.68701 -7.03027,-5.68701 0,0 9.99218,-5.15381 9.99218,-5.15381 0,0 -2.96191,10.84082 -2.96191,10.84082 z"
         style="fill:#176fc1;fill-opacity:1;fill-rule:nonzero;stroke:none"
         id="path11796"
         inkscape:connector-curvature="0" /><path
         d="m 538.64746,-553.30322 c 0,0 -0.85937,27.63672 -0.85937,27.63672 0,0 13.3916,-13.17676 13.3916,-13.17676 0,0 2.21777,2.26074 2.21777,2.26074 0,0 -18.86621,18.57471 -18.86621,18.57471 0,0 0.86133,-27.6377 0.86133,-27.6377 0,0 -13.51953,13.29492 -13.51953,13.29492 0,0 -2.21289,-2.26123 -2.21289,-2.26123 0,0 18.9873,-18.6914 18.9873,-18.6914 z"
         style="fill:#176fc1;fill-opacity:1;fill-rule:nonzero;stroke:none"
         id="path11798"
         inkscape:connector-curvature="0" /><path
         d="m 568.59277,-518.94531 c -4.44336,-5.77442 -12.86523,-6.91553 -18.63086,-2.47119 -5.99023,4.60839 -6.86132,12.8164 -2.37695,18.64599 4.48242,5.82569 12.64453,7.08057 18.63477,2.4668 5.77246,-4.44434 6.81738,-12.86865 2.37304,-18.6416 z m -18.65136,14.36328 c -3.36133,-4.35449 -2.64063,-10.78076 1.94922,-14.32178 4.43652,-3.41748 10.7041,-2.9624 14.35058,1.7666 3.6416,4.73047 2.47363,10.90821 -1.96094,14.32422 -4.5957,3.53711 -10.99414,2.58936 -14.33886,-1.76904 z"
         style="fill:#176fc1;fill-opacity:1;fill-rule:nonzero;stroke:none"
         id="path11800"
         inkscape:connector-curvature="0" /><path
         d="m 582.88379,-473.09766 c 0,0 -0.86621,0.51661 -0.86621,0.51661 -6.00977,3.56005 -13.13965,2.05908 -16.7627,-4.06495 -3.62695,-6.12597 -1.2666,-14.18798 4.79492,-17.78076 6.29981,-3.7334 14.45215,-1.74023 18.18848,4.55518 2.0127,3.39697 2.46875,7.67676 1.04004,11.41992 0,0 -2.96191,-0.83154 -2.96191,-0.83154 1.21875,-2.83594 1.07714,-6.32373 -0.50879,-8.99414 -2.90332,-4.90235 -9.14746,-6.38037 -14.04981,-3.47559 -4.58886,2.71777 -6.71191,9.06982 -3.90429,13.80127 2.01171,3.39453 7.1123,5.31641 10.74511,3.31689 0,0 -3.35058,-5.66064 -3.35058,-5.66064 0,0 2.50097,-1.479 2.50097,-1.479 0,0 5.13477,8.67675 5.13477,8.67675 z"
         style="fill:#176fc1;fill-opacity:1;fill-rule:nonzero;stroke:none"
         id="path11802"
         inkscape:connector-curvature="0" /><path
         d="m 588.32227,-457.45313 c 1.93652,3.1587 5.70996,4.09473 9.02148,2.57325 2.2041,-1.01563 3.88086,-3.12158 4.11719,-5.57373 0.19238,-2.31494 -0.78223,-4.53711 -1.73145,-6.59082 0,0 -1.60742,-3.49024 -1.60742,-3.49024 0,0 -23.10352,10.62988 -23.10352,10.62988 0,0 1.32325,2.87793 1.32325,2.87793 0,0 9.77929,-4.49511 9.77929,-4.49511 0,0 0.53907,1.19092 0.53907,1.19092 0,0 -6.63868,11.30468 -6.63868,11.30468 0,0 1.60645,3.49073 1.60645,3.49073 0,0 6.69434,-11.91749 6.69434,-11.91749 z m 8.55078,-9.01855 c 0,0 0.35547,0.76465 0.35547,0.76465 1.31152,2.85156 2.36523,6.52295 -1.24707,8.18603 -3.67969,1.69287 -5.69727,-1.23974 -7.05079,-4.1831 0,0 -0.42578,-0.91944 -0.42578,-0.91944 0,0 8.36817,-3.84814 8.36817,-3.84814 z"
         style="fill:#176fc1;fill-opacity:1;fill-rule:nonzero;stroke:none"
         id="path11804"
         inkscape:connector-curvature="0" /><path
         d="m 595.16895,-426.89063 c 0,0 -5.08497,4.82178 -5.08497,4.82178 0,0 1.11622,3.21826 1.11622,3.21826 0,0 21.11035,-20.12353 21.11035,-20.12353 0,0 -29.03223,-2.83789 -29.03223,-2.83789 0,0 1.11523,3.22363 1.11523,3.22363 0,0 6.96973,0.65918 6.96973,0.65918 0,0 3.80567,11.03857 3.80567,11.03857 z m 2.32324,-2.18847 c 0,0 -2.95606,-8.54736 -2.95606,-8.54736 0,0 11.20117,0.91748 11.20117,0.91748 0,0 -8.24511,7.62988 -8.24511,7.62988 z"
         style="fill:#176fc1;fill-opacity:1;fill-rule:nonzero;stroke:none"
         id="path11806"
         inkscape:connector-curvature="0" /><path
         d="m 606.57031,-412.69482 c 0,0 0.23047,0.98486 0.23047,0.98486 0.75684,3.14648 2.17188,6.41308 6.10742,5.47021 3.86426,-0.93408 3.44043,-4.71923 2.71387,-7.76611 0,0 -0.20215,-0.8208 -0.20215,-0.8208 0,0 -8.84961,2.13184 -8.84961,2.13184 z m -13.12695,3.15234 c 0,0 -0.73535,-3.0835 -0.73535,-3.0835 0,0 24.72461,-5.94677 24.72461,-5.94677 0,0 0.85937,3.54004 0.85937,3.54004 1.82422,7.60937 -0.23047,10.60498 -4.74902,11.69042 -5.22266,1.25733 -8.17285,-2.22753 -9.30371,-6.91748 0,0 -0.42969,-1.77441 -0.42969,-1.77441 0,0 -10.36621,2.4917 -10.36621,2.4917 z"
         style="fill:#176fc1;fill-opacity:1;fill-rule:nonzero;stroke:none"
         id="path11808"
         inkscape:connector-curvature="0" /><path
         d="m 614.48828,-379.43359 c 0,0 10.15039,-1.44873 10.15039,-1.44873 0,0 0.4541,3.13476 0.4541,3.13476 0,0 -25.18359,3.59815 -25.18359,3.59815 0,0 -0.45117,-3.13428 -0.45117,-3.13428 0,0 12.09082,-1.72949 12.09082,-1.72949 0,0 -1.71387,-11.99121 -1.71387,-11.99121 0,0 -12.0918,1.72851 -12.0918,1.72851 0,0 -0.44726,-3.13476 -0.44726,-3.13476 0,0 25.17773,-3.60499 25.17773,-3.60499 0,0 0.44434,3.14014 0.44434,3.14014 0,0 -10.14942,1.4541 -10.14942,1.4541 0,0 1.71973,11.9878 1.71973,11.9878 z"
         style="fill:#176fc1;fill-opacity:1;fill-rule:nonzero;stroke:none"
         id="path11810"
         inkscape:connector-curvature="0" /><path
         d="m 625.92188,-369.07568 c 0,0 0.16699,3.6372 0.16699,3.6372 0,0 -10.57813,6.70899 -10.57813,6.70899 0,0 11.12696,5.75732 11.12696,5.75732 0,0 0.15136,3.64209 0.15136,3.64209 0,0 -14.71582,-7.66162 -14.71582,-7.66162 0,0 -11.05273,0.48779 -11.05273,0.48779 0,0 -0.13672,-3.16894 -0.13672,-3.16894 0,0 11.05566,-0.48535 11.05566,-0.48535 0,0 13.98243,-8.91748 13.98243,-8.91748 z"
         style="fill:#176fc1;fill-opacity:1;fill-rule:nonzero;stroke:none"
         id="path11812"
         inkscape:connector-curvature="0" /><path
         d="m 293.06836,-93.68457 c 0,0 -2.66455,14.77246 -2.66455,14.77246 -0.73682,4.08301 -0.19092,8.08984 4.625,8.94824 4.81006,0.8711 6.72314,-2.6914 7.45654,-6.76953 0,0 2.66504,-14.77441 2.66504,-14.77441 0,0 3.12012,0.56152 3.12012,0.56152 0,0 -2.85401,15.83691 -2.85401,15.83691 -0.99365,5.51563 -5.17431,9.10743 -10.91552,8.07325 -5.74659,-1.03223 -8.40332,-5.8711 -7.41016,-11.37696 0,0 2.85205,-15.83984 2.85205,-15.83984 0,0 3.12549,0.56836 3.12549,0.56836 z"
         style="fill:#176fc1;fill-opacity:1;fill-rule:nonzero;stroke:none"
         id="path11814"
         inkscape:connector-curvature="0" /><path
         d="m 343.74854,-83.41699 c -1.74952,-1.69922 -4.20655,-2.68262 -6.60157,-2.78614 -5.6958,-0.24609 -10.24707,4.32422 -10.48877,9.94922 -0.24414,5.55567 3.86719,10.49805 9.53076,10.74512 2.4917,0.10938 4.9253,-0.73828 6.88477,-2.34277 0,0 -0.16064,3.74316 -0.16064,3.74316 -2.0044,1.05762 -4.52442,1.58887 -6.74805,1.5 -7.24658,-0.31543 -12.99658,-6.33203 -12.68066,-13.68066 0.32568,-7.52344 6.60986,-13.1211 14.08935,-12.79395 2.23145,0.09571 4.46338,0.72461 6.3291,1.98633 0,0 -0.15429,3.67969 -0.15429,3.67969 z"
         style="fill:#176fc1;fill-opacity:1;fill-rule:nonzero;stroke:none"
         id="path11816"
         inkscape:connector-curvature="0" /><path
         d="m 372.37402,-84.97559 c -1.08105,-1.51367 -2.35449,-2.20898 -4.27148,-2.05175 -2.02246,0.17578 -4.12402,1.74707 -3.93457,3.96191 0.17383,1.98438 2.20898,2.86133 3.83594,3.3291 0,0 1.87988,0.54981 1.87988,0.54981 3.71777,1.10937 6.57617,2.85644 6.93457,7.08593 0.39844,4.61524 -2.87891,8.21387 -7.41992,8.59278 -4.09864,0.35742 -7.55762,-2.39453 -8.4375,-6.4209 0,0 3.13476,-0.93359 3.13476,-0.93359 0.20508,2.78613 2.60059,4.60937 5.31543,4.37597 2.72852,-0.22851 4.48145,-2.68164 4.25293,-5.33984 -0.22851,-2.71582 -2.52148,-3.71094 -4.77734,-4.42774 0,0 -1.81445,-0.59668 -1.81445,-0.59668 -3,-0.98535 -5.7627,-2.41211 -6.05469,-5.9414 -0.35059,-4.09473 3.06055,-6.86914 6.89648,-7.19727 2.81934,-0.23828 5.26074,0.94629 6.84668,3.28418 0,0 -2.38672,1.72949 -2.38672,1.72949 z"
         style="fill:#176fc1;fill-opacity:1;fill-rule:nonzero;stroke:none"
         id="path11818"
         inkscape:connector-curvature="0" /><path
         d="m 396.71777,-67.57422 c 0,0 5.03809,-1.09766 5.03809,-1.09766 7.8418,-1.69433 13.15039,-7.13867 11.31055,-15.60253 -1.79493,-8.27442 -9.00098,-10.91993 -16.61524,-9.26563 0,0 -5.13672,1.11524 -5.13672,1.11524 0,0 5.40332,24.85058 5.40332,24.85058 z m -1.6914,-22.68945 c 0,0 1.08886,-0.23438 1.08886,-0.23438 6.32032,-1.37695 12.30567,-0.22558 13.88379,7.0293 1.56836,7.21484 -3.38769,10.78418 -9.72168,12.15137 0,0 -1.08398,0.24511 -1.08398,0.24511 0,0 -4.16699,-19.1914 -4.16699,-19.1914 z"
         style="fill:#176fc1;fill-opacity:1;fill-rule:nonzero;stroke:none"
         id="path11820"
         inkscape:connector-curvature="0" /></g></g></svg>